<svg width="28" height="28" viewBox="0 0 28 28" fill="none" xmlns="http://www.w3.org/2000/svg">
<path d="M28 19.4502V26.2899C28.0006 26.7657 27.808 27.2211 27.4662 27.5522C27.1713 27.8389 26.7762 27.9996 26.3649 28C26.3419 28 26.319 27.9994 26.296 27.9984V27.9982C19.4177 27.7047 12.901 24.8361 8.03914 19.9616C3.16412 15.0995 0.29493 8.58265 0.00144054 1.70347C-0.0171133 1.26873 0.14421 0.845712 0.447714 0.533776C0.778562 0.191997 1.23404 -0.000548799 1.70977 1.17495e-06H8.54951C8.95321 0.00175889 9.34324 0.148234 9.64832 0.412677C9.95339 0.677315 10.1536 1.04255 10.2124 1.44213L11.1158 7.76583C11.1893 8.28926 11.0135 8.81678 10.6406 9.19137L7.95834 11.8736C7.77495 12.0535 7.73628 12.3346 7.8642 12.5572C9.75728 15.6457 12.3541 18.2424 15.4424 20.1354C15.6649 20.2639 15.9463 20.2252 16.126 20.0414L18.8083 17.3591C19.1827 16.9861 19.7104 16.8102 20.2338 16.884L26.5576 17.7874H26.5578C26.9572 17.8462 27.3224 18.0464 27.5871 18.3514C27.8515 18.6567 27.998 19.0465 27.9998 19.4502L28 19.4502Z" fill="white"/>
</svg>
