<svg width="13" height="18" viewBox="0 0 13 18" fill="none" xmlns="http://www.w3.org/2000/svg">
<path d="M6.50024 0C2.91574 0 0 2.94519 0 6.56492C0 8.0403 1.02144 10.3842 3.03631 13.5314C4.50288 15.8222 5.99066 17.7385 6.00545 17.7573C6.1247 17.9107 6.30711 18 6.5 18C6.69289 18 6.8753 17.9108 6.99455 17.7573C7.00934 17.7386 8.49732 15.8219 9.96369 13.5314C11.9784 10.3841 13 8.03994 13 6.56492C13.0003 2.94507 10.0847 0 6.50024 0ZM6.5252 9.62252C4.88903 9.62252 3.55759 8.27922 3.55759 6.62801C3.55759 4.97681 4.88872 3.63351 6.5252 3.63351C8.16167 3.63351 9.4928 4.97681 9.4928 6.62801C9.4928 8.27922 8.16167 9.62252 6.5252 9.62252Z" fill="white"/>
</svg>
