<svg width="7" height="13" viewBox="0 0 7 13" fill="none" xmlns="http://www.w3.org/2000/svg">
<path d="M0.00256462 6.55435C0.0153539 6.68782 0.0745494 6.81413 0.171746 6.91505L5.75936 12.7662C5.87884 12.8994 6.05277 12.9829 6.24144 12.9977C6.43011 13.0123 6.61733 12.9572 6.76008 12.8446C6.90295 12.7319 6.98918 12.5717 6.99905 12.4004C7.00891 12.2291 6.94168 12.0615 6.81257 11.9361L1.62314 6.5L6.81257 1.06393C6.94168 0.938503 7.00891 0.770942 6.99905 0.599642C6.98918 0.428342 6.90295 0.268056 6.76008 0.155437C6.61733 0.0428101 6.43012 -0.0123441 6.24144 0.0023262C6.05278 0.0171078 5.87884 0.100613 5.75936 0.233756L0.171746 6.08495C0.0473878 6.21423 -0.0136335 6.38366 0.00256462 6.55443L0.00256462 6.55435Z" fill="white"/>
</svg>
