<svg width="16" height="16" viewBox="0 0 16 16" fill="none" xmlns="http://www.w3.org/2000/svg">
<path d="M14.2634 1.84365H12.4256V0.710363C12.4256 0.321385 12.1052 0 11.7175 0H10.8576C10.4699 0 10.1495 0.321385 10.1495 0.710363V1.82668H5.86717V0.710363C5.86717 0.321385 5.54681 0 5.15907 0H4.29925C3.91151 0 3.59115 0.321385 3.59115 0.710363V1.82668H1.75335C0.775486 1.82668 0 2.62161 0 3.58561V14.2411C0 15.222 0.792406 16 1.75335 16H14.2464C15.2242 16 15.9997 15.2051 15.9997 14.2411V3.58561C16.0167 2.63861 15.2242 1.84365 14.2633 1.84365H14.2634ZM14.2634 15.0192H1.75347C1.33198 15.0192 0.994812 14.681 0.994812 14.2581V5.95364H15.0052V14.2581C15.0222 14.681 14.6681 15.0192 14.2635 15.0192H14.2634Z" fill="#308F6B"/>
<path d="M4.83878 7.49268H2.98415C2.7313 7.49268 2.52891 7.6956 2.52891 7.94937V9.35318C2.52891 9.60683 2.73119 9.80987 2.98415 9.80987H4.83878C5.09162 9.80987 5.29402 9.60695 5.29402 9.35318V7.94937C5.29402 7.6956 5.09174 7.49268 4.83878 7.49268Z" fill="#308F6B"/>
<path d="M8.95255 7.49268H7.09792C6.84507 7.49268 6.64268 7.6956 6.64268 7.94937V9.35318C6.64268 9.60683 6.84496 9.80987 7.09792 9.80987H8.95255C9.20539 9.80987 9.40779 9.60695 9.40779 9.35318V7.94937C9.40779 7.6956 9.20551 7.49268 8.95255 7.49268Z" fill="#308F6B"/>
<path d="M13.0832 7.49268H11.2286C10.9757 7.49268 10.7733 7.6956 10.7733 7.94937V9.35318C10.7733 9.60683 10.9756 9.80987 11.2286 9.80987H13.0832C13.3361 9.80987 13.5384 9.60695 13.5384 9.35318V7.94937C13.5384 7.6956 13.3362 7.49268 13.0832 7.49268Z" fill="#308F6B"/>
<path d="M4.83878 11.2139H2.98415C2.7313 11.2139 2.52891 11.4168 2.52891 11.6706V13.0744C2.52891 13.328 2.73119 13.5311 2.98415 13.5311H4.83878C5.09162 13.5311 5.29402 13.3281 5.29402 13.0744V11.6706C5.29402 11.4168 5.09174 11.2139 4.83878 11.2139Z" fill="#308F6B"/>
<path d="M8.95255 11.2139H7.09792C6.84507 11.2139 6.64268 11.4168 6.64268 11.6706V13.0744C6.64268 13.328 6.84496 13.5311 7.09792 13.5311H8.95255C9.20539 13.5311 9.40779 13.3281 9.40779 13.0744V11.6706C9.40779 11.4168 9.20551 11.2139 8.95255 11.2139Z" fill="#308F6B"/>
<path d="M13.0832 11.2139H11.2286C10.9757 11.2139 10.7733 11.4168 10.7733 11.6706V13.0744C10.7733 13.328 10.9756 13.5311 11.2286 13.5311H13.0832C13.3361 13.5311 13.5384 13.3281 13.5384 13.0744V11.6706C13.5384 11.4168 13.3362 11.2139 13.0832 11.2139Z" fill="#308F6B"/>
</svg>
