<svg width="13" height="7" viewBox="0 0 13 7" fill="none" xmlns="http://www.w3.org/2000/svg">
<path d="M6.44565 6.99744C6.31218 6.98465 6.18587 6.92545 6.08495 6.82825L0.233756 1.24064C0.100614 1.12116 0.0171061 0.947225 0.00232604 0.758556C-0.0123453 0.569887 0.0428114 0.38267 0.155438 0.239924C0.268065 0.0970536 0.428346 0.0108169 0.599643 0.000951241C0.77094 -0.00891439 0.938516 0.0583178 1.06393 0.187428L6.5 5.37686L11.9361 0.187428C12.0615 0.0583205 12.2291 -0.00891475 12.4004 0.000950866C12.5717 0.0108165 12.7319 0.0970501 12.8446 0.239924C12.9572 0.382673 13.0123 0.56988 12.9977 0.758556C12.9829 0.947225 12.8994 1.12116 12.7662 1.24064L6.91505 6.82825C6.78577 6.95261 6.61634 7.01363 6.44557 6.99744L6.44565 6.99744Z" fill="white"/>
</svg>
