<svg width="17" height="13" viewBox="0 0 17 13" fill="none" xmlns="http://www.w3.org/2000/svg">
<path d="M1.27506 0C1.02574 0 0.793749 0.0764332 0.597643 0.210346L7.8757 7.13111C8.26184 7.49804 8.72399 7.49804 9.11089 7.13111L16.4022 0.210346C16.2063 0.076429 15.9742 0 15.7248 0H1.27494H1.27506ZM0.0730767 0.94308C0.0289037 1.08461 0 1.23439 0 1.39277V11.6071C0 12.3786 0.568584 13 1.27506 13H15.7249C16.4312 13 17 12.3789 17 11.6071V1.39277C17 1.23441 16.9711 1.08462 16.9269 0.942915L9.6686 7.82761C8.99194 8.46948 7.99438 8.47064 7.31787 7.82761L0.072826 0.942915L0.0730767 0.94308Z" fill="white"/>
</svg>
