<svg width="7" height="13" viewBox="0 0 7 13" fill="none" xmlns="http://www.w3.org/2000/svg">
<path d="M6.99744 6.55435C6.98465 6.68782 6.92545 6.81413 6.82825 6.91505L1.24064 12.7662C1.12116 12.8994 0.947225 12.9829 0.758556 12.9977C0.569887 13.0123 0.38267 12.9572 0.239924 12.8446C0.0970537 12.7319 0.010817 12.5717 0.000951389 12.4004C-0.00891424 12.2291 0.0583179 12.0615 0.187429 11.9361L5.37686 6.5L0.187428 1.06393C0.0583205 0.938503 -0.00891474 0.770942 0.000950873 0.599642C0.0108165 0.428342 0.0970501 0.268056 0.239924 0.155437C0.382673 0.0428101 0.56988 -0.0123441 0.758556 0.0023262C0.947225 0.0171078 1.12116 0.100613 1.24064 0.233756L6.82825 6.08495C6.95261 6.21423 7.01363 6.38366 6.99744 6.55443L6.99744 6.55435Z" fill="white"/>
</svg>
