<svg width="17" height="17" viewBox="0 0 17 17" fill="none" xmlns="http://www.w3.org/2000/svg">
<path d="M16.9093 13.4018C16.1199 11.7538 14.7737 10.6787 12.8503 10.1988C12.5614 10.1268 12.2544 10.1983 12.0239 10.3868L10.4265 11.692C10.1146 11.9468 9.67381 11.9796 9.33103 11.7682C7.64141 10.7259 6.27418 9.35871 5.23185 7.669C5.02041 7.32623 5.05318 6.88539 5.30806 6.57351L6.61322 4.97617C6.80169 4.74552 6.87326 4.43865 6.80119 4.14975C6.32129 2.22645 5.24614 0.880185 3.59821 0.0907579C3.33228 -0.0365565 3.01877 -0.0295269 2.75873 0.10934C1.93006 0.551947 1.13728 1.05267 0.386199 1.61578C0.0985457 1.83136 -0.0464769 2.18795 0.0132768 2.54239C0.553181 5.74021 2.28112 9.10305 5.08897 11.911C7.89681 14.7189 11.2598 16.4467 14.4577 16.9867C14.8121 17.0465 15.1686 16.9015 15.3843 16.6138C15.9474 15.8627 16.4481 15.0699 16.8907 14.2413C17.0295 13.9811 17.0366 13.6675 16.9092 13.4017L16.9093 13.4018Z" fill="white"/>
</svg>
