<svg width="28" height="28" viewBox="0 0 28 28" fill="none" xmlns="http://www.w3.org/2000/svg">
<path fill-rule="evenodd" clip-rule="evenodd" d="M14.0001 8.70228e-05C6.26194 8.70228e-05 0 6.25821 0 14.0001C0 16.9198 0.890384 19.6202 2.47196 21.9407C2.5911 22.1175 2.62333 22.3389 2.55936 22.5423L1.13747 27.3001L5.79696 25.6922V25.6924C5.99862 25.625 6.22006 25.6533 6.39853 25.7688C8.58092 27.1848 11.1938 28 13.9999 28C21.7418 28 28 21.7419 28 14C28 6.25812 21.7418 0 13.9999 0L14.0001 8.70228e-05ZM8.2689 6.10309L10.8172 10.314L9.75616 11.3641L9.75641 11.3643C9.53424 11.5882 9.48956 11.9332 9.64703 12.2064C11.2662 15.0101 13.1844 17.1913 15.8705 18.3751C16.1339 18.4923 16.442 18.4359 16.6471 18.233L17.7736 17.1066L21.8862 19.6769C21.4308 20.7017 20.8371 21.3119 20.1581 21.6674C19.3715 22.0792 18.4108 22.1571 17.3144 21.9298C15.1215 21.4752 12.4727 19.7518 10.3143 17.5438C8.15583 15.3361 6.48537 12.6513 6.05962 10.4669C5.84673 9.37488 5.94072 8.43444 6.34405 7.68888C6.69122 7.04682 7.28106 6.49726 8.26913 6.10294L8.2689 6.10309Z" fill="white"/>
</svg>
