<?xml version="1.0" encoding="utf-8"?><svg xmlns="http://www.w3.org/2000/svg" xmlns:xlink="http://www.w3.org/1999/xlink"><symbol viewBox="0 0 28 28" id="call" xmlns="http://www.w3.org/2000/svg"><path d="M28 19.45v6.84c0 .476-.192.931-.534 1.262a1.582 1.582 0 01-1.17.446 27.438 27.438 0 01-18.257-8.036A27.438 27.438 0 01.001 1.703 1.58 1.58 0 01.448.533 1.76 1.76 0 011.71 0h6.84a1.69 1.69 0 011.662 1.442l.904 6.324a1.688 1.688 0 01-.475 1.425l-2.683 2.683a.564.564 0 00-.094.683 22.965 22.965 0 007.578 7.578c.223.129.504.09.684-.094l2.682-2.682a1.686 1.686 0 011.426-.475l6.324.903A1.689 1.689 0 0128 19.45z"/></symbol><symbol viewBox="0 0 20 20" id="close" xmlns="http://www.w3.org/2000/svg"><path d="M19.999 1.69a1.776 1.776 0 01-.496 1.196l-.027.027c-.216.22-.433.432-.649.648L12.388 10l7.115 7.113c.32.321.476.747.496 1.195.017.453-.202.872-.496 1.196-.284.314-.78.496-1.195.496a1.777 1.777 0 01-1.196-.496l-.027-.027c-.22-.216-.432-.433-.648-.649L10 12.387 2.888 19.5c-.324.324-.746.476-1.195.496-.453.017-.871-.203-1.196-.496C.182 19.217 0 18.72 0 18.306c.003-.433.192-.888.496-1.196l.027-.026c.216-.22.433-.433.649-.649l6.442-6.434L.499 2.887C.175 2.562.023 2.14.003 1.69-.014 1.24.206.821.499.496.783.182 1.28 0 1.695 0c.432.003.888.192 1.195.496l.027.027c.22.216.432.432.648.649l6.436 6.441L17.114.5c.32-.32.746-.476 1.195-.496.453-.017.872.203 1.196.496.31.284.493.777.493 1.192z"/></symbol><symbol viewBox="0 0 16 16" id="date" xmlns="http://www.w3.org/2000/svg"><path d="M14.263 1.844h-1.837V.71c0-.389-.32-.71-.709-.71h-.86a.714.714 0 00-.707.71v1.117H5.866V.71c0-.389-.32-.71-.708-.71H4.3a.714.714 0 00-.708.71v1.117H1.753C.775 1.827 0 2.622 0 3.586V14.24C0 15.222.792 16 1.753 16h12.493c.978 0 1.754-.795 1.754-1.759V3.586c.017-.947-.776-1.742-1.737-1.742zm0 13.175H1.753a.757.757 0 01-.758-.76V5.953h14.01v8.304a.742.742 0 01-.742.761z"/><path d="M4.839 7.493H2.984a.454.454 0 00-.455.456v1.404c0 .254.202.457.455.457H4.84a.454.454 0 00.455-.457V7.95a.454.454 0 00-.455-.456zm4.114 0H7.098a.454.454 0 00-.455.456v1.404c0 .254.202.457.455.457h1.855a.454.454 0 00.455-.457V7.95a.454.454 0 00-.455-.456zm4.13 0H11.23a.454.454 0 00-.456.456v1.404c0 .254.203.457.456.457h1.854a.454.454 0 00.455-.457V7.95a.454.454 0 00-.455-.456zm-8.244 3.721H2.984a.454.454 0 00-.455.457v1.403c0 .254.202.457.455.457H4.84a.454.454 0 00.455-.457v-1.403a.454.454 0 00-.455-.457zm4.114 0H7.098a.454.454 0 00-.455.457v1.403c0 .254.202.457.455.457h1.855a.454.454 0 00.455-.457v-1.403a.454.454 0 00-.455-.457zm4.13 0H11.23a.454.454 0 00-.456.457v1.403c0 .254.203.457.456.457h1.854a.454.454 0 00.455-.457v-1.403a.454.454 0 00-.455-.457z"/></symbol><symbol viewBox="0 0 13 7" id="down" xmlns="http://www.w3.org/2000/svg"><path d="M6.446 6.997a.603.603 0 01-.361-.169L.234 1.241A.723.723 0 01.002.759a.747.747 0 01.153-.52A.612.612 0 01.6.002a.599.599 0 01.464.186L6.5 5.377l5.436-5.19A.599.599 0 0112.4.001c.172.01.332.096.445.239.112.143.167.33.153.519a.723.723 0 01-.232.482L6.915 6.828a.595.595 0 01-.47.17z"/></symbol><symbol viewBox="0 0 17 13" id="envelope" xmlns="http://www.w3.org/2000/svg"><path d="M1.275 0c-.25 0-.481.076-.677.21l7.278 6.921c.386.367.848.367 1.235 0l7.291-6.92A1.193 1.193 0 0015.725 0H1.275zM.073.943a1.503 1.503 0 00-.073.45v10.214C0 12.38.569 13 1.275 13h14.45C16.43 13 17 12.379 17 11.607V1.393a1.51 1.51 0 00-.073-.45L9.669 7.828a1.674 1.674 0 01-2.351 0L.073.943z"/></symbol><symbol viewBox="0 0 13 18" id="map" xmlns="http://www.w3.org/2000/svg"><path d="M6.5 0C2.916 0 0 2.945 0 6.565c0 1.475 1.021 3.82 3.036 6.966a63.708 63.708 0 002.97 4.226.626.626 0 00.989 0 63.684 63.684 0 002.969-4.226C11.978 10.384 13 8.04 13 6.565 13 2.945 10.085 0 6.5 0zm.025 9.623c-1.636 0-2.967-1.344-2.967-2.995s1.33-2.994 2.967-2.994 2.968 1.343 2.968 2.994c0 1.651-1.331 2.995-2.968 2.995z"/></symbol><symbol viewBox="0 0 7 13" id="next" xmlns="http://www.w3.org/2000/svg"><path d="M6.997 6.554a.603.603 0 01-.169.361l-5.587 5.851a.723.723 0 01-.482.232.747.747 0 01-.52-.153.612.612 0 01-.238-.445.599.599 0 01.186-.464L5.377 6.5.187 1.064A.599.599 0 01.001.6.612.612 0 01.24.155.747.747 0 01.759.002a.723.723 0 01.482.232l5.587 5.851c.125.13.186.299.17.47z"/></symbol><symbol viewBox="0 0 17 17" id="phone" xmlns="http://www.w3.org/2000/svg"><path d="M16.91 13.402c-.79-1.648-2.136-2.723-4.06-3.203a.947.947 0 00-.826.188l-1.597 1.305a.948.948 0 01-1.096.076 12.408 12.408 0 01-4.1-4.099.948.948 0 01.077-1.095l1.305-1.598a.947.947 0 00.188-.826C6.321 2.226 5.246.88 3.598.09a.933.933 0 00-.84.02c-.828.442-1.62.943-2.372 1.506a.959.959 0 00-.373.926c.54 3.198 2.268 6.561 5.076 9.369s6.17 4.536 9.369 5.076c.354.06.71-.085.926-.373a18.403 18.403 0 001.507-2.373.933.933 0 00.018-.84z"/></symbol><symbol viewBox="0 0 7 13" id="prev" xmlns="http://www.w3.org/2000/svg"><path d="M.003 6.554a.6.6 0 00.169.361l5.587 5.851a.747.747 0 001 .078A.612.612 0 007 12.4a.599.599 0 00-.186-.464L1.623 6.5l5.19-5.436A.599.599 0 006.999.6.612.612 0 006.76.155a.747.747 0 00-.519-.153.723.723 0 00-.482.232L.172 6.085a.595.595 0 00-.17.47z"/></symbol><symbol viewBox="0 0 28 28" id="wa" xmlns="http://www.w3.org/2000/svg"><path fill-rule="evenodd" clip-rule="evenodd" d="M14 0C6.262 0 0 6.258 0 14c0 2.92.89 5.62 2.472 7.94a.7.7 0 01.087.602L1.137 27.3l4.66-1.608a.7.7 0 01.602.077 13.917 13.917 0 007.6 2.231C21.743 28 28 21.742 28 14S21.742 0 14 0zM8.27 6.103l2.548 4.211-1.06 1.05a.7.7 0 00-.11.842c1.62 2.804 3.537 4.985 6.223 6.17a.7.7 0 00.777-.143l1.127-1.126 4.112 2.57c-.455 1.025-1.049 1.635-1.728 1.99-.787.412-1.747.49-2.844.263-2.193-.455-4.841-2.178-7-4.386-2.158-2.208-3.829-4.893-4.254-7.077-.213-1.092-.12-2.033.284-2.778.347-.642.937-1.192 1.925-1.586z"/></symbol></svg>