<svg width="36" height="49" viewBox="0 0 36 49" fill="none" xmlns="http://www.w3.org/2000/svg">
<path d="M18.0007 0C8.07436 0 0 8.01746 0 17.8712C0 21.8875 2.82859 28.2682 8.40824 36.8354C12.4695 43.0717 16.5895 48.2882 16.6305 48.3392C16.9607 48.7569 17.4658 49 18 49C18.5342 49 19.0393 48.7573 19.3695 48.3392C19.4105 48.2884 23.531 43.0708 27.5918 36.8354C33.171 28.2677 36 21.8865 36 17.8712C36.0009 8.01714 27.9268 0 18.0007 0ZM18.0698 26.1946C13.5389 26.1946 9.85179 22.5379 9.85179 18.0429C9.85179 13.548 13.538 9.89122 18.0698 9.89122C22.6016 9.89122 26.2878 13.548 26.2878 18.0429C26.2878 22.5379 22.6016 26.1946 18.0698 26.1946Z" fill="url(#paint0_linear_139_3549)"/>
<defs>
<linearGradient id="paint0_linear_139_3549" x1="37.2733" y1="-33.2716" x2="-5.54591" y2="-30.702" gradientUnits="userSpaceOnUse">
<stop offset="0.0343685" stop-color="#46ACD4"/>
<stop offset="1" stop-color="#41A981"/>
</linearGradient>
</defs>
</svg>
