<svg width="44" height="44" viewBox="0 0 44 44" fill="none" xmlns="http://www.w3.org/2000/svg">
<circle cx="22" cy="22" r="22" fill="url(#paint0_linear_83_966)"/>
<path d="M32.8727 27.6435C32.8437 27.5795 32.8166 27.5264 32.7914 27.4838C32.375 26.7171 31.5793 25.7759 30.4047 24.6601L30.3799 24.6346L30.3675 24.6221L30.3549 24.6092H30.3423C29.8092 24.0897 29.4716 23.7403 29.3303 23.5614C29.0716 23.2207 29.0137 22.8759 29.155 22.5264C29.2549 22.2624 29.6301 21.7048 30.2797 20.853C30.6213 20.4015 30.892 20.0397 31.0918 19.7671C32.5331 17.808 33.1579 16.5561 32.9662 16.011L32.8918 15.8836C32.8418 15.8069 32.7127 15.7367 32.5046 15.6727C32.2961 15.6089 32.0296 15.5983 31.7047 15.6409L28.106 15.6663C28.0477 15.6452 27.9644 15.6471 27.856 15.6727C27.7477 15.6983 27.6935 15.7112 27.6935 15.7112L27.6308 15.7432L27.5811 15.7816C27.5395 15.807 27.4936 15.8517 27.4436 15.9156C27.3938 15.9793 27.3522 16.054 27.319 16.1392C26.9272 17.1698 26.4817 18.128 25.9817 19.0137C25.6735 19.5419 25.3904 19.9996 25.1319 20.3872C24.8737 20.7746 24.6571 21.06 24.4823 21.243C24.3072 21.4262 24.1492 21.5729 24.0073 21.6837C23.8657 21.7946 23.7575 21.8415 23.6826 21.8243C23.6076 21.8072 23.5369 21.7902 23.47 21.7732C23.3534 21.6965 23.2597 21.5922 23.189 21.4602C23.118 21.3282 23.0702 21.162 23.0452 20.9619C23.0203 20.7616 23.0056 20.5893 23.0014 20.4444C22.9975 20.2998 22.9993 20.0951 23.0078 19.8311C23.0164 19.567 23.0203 19.3882 23.0203 19.2945C23.0203 18.9708 23.0265 18.6195 23.0389 18.2405C23.0515 17.8615 23.0617 17.5612 23.0702 17.3399C23.0787 17.1185 23.0827 16.8842 23.0827 16.6372C23.0827 16.3902 23.068 16.1965 23.0389 16.0559C23.0102 15.9154 22.9661 15.7791 22.908 15.647C22.8496 15.515 22.7641 15.4129 22.6519 15.3404C22.5394 15.268 22.3996 15.2105 22.2333 15.1678C21.7917 15.0657 21.2294 15.0104 20.5462 15.0018C18.9968 14.9848 18.0012 15.0871 17.5597 15.3086C17.3848 15.4021 17.2265 15.53 17.0849 15.6917C16.9349 15.8791 16.914 15.9814 17.0223 15.9983C17.5222 16.0748 17.8761 16.258 18.0844 16.5475L18.1595 16.701C18.2178 16.8117 18.2761 17.0077 18.3345 17.2887C18.3927 17.5697 18.4303 17.8806 18.4469 18.2211C18.4885 18.843 18.4885 19.3753 18.4469 19.8181C18.4052 20.2611 18.3658 20.606 18.3282 20.853C18.2906 21.1 18.2344 21.3002 18.1595 21.4535C18.0844 21.6068 18.0345 21.7005 18.0094 21.7345C17.9844 21.7685 17.9636 21.7899 17.9471 21.7983C17.8388 21.8407 17.7262 21.8624 17.6096 21.8624C17.4929 21.8624 17.3513 21.8027 17.1848 21.6834C17.0182 21.5641 16.8454 21.4002 16.6663 21.1915C16.4871 20.9827 16.2851 20.691 16.0601 20.3163C15.8353 19.9416 15.602 19.4987 15.3604 18.9877L15.1605 18.6171C15.0355 18.3787 14.8649 18.0315 14.6483 17.5759C14.4315 17.1202 14.24 16.6793 14.0734 16.2535C14.0068 16.0746 13.9068 15.9384 13.7736 15.8447L13.711 15.8063C13.6695 15.7723 13.6027 15.7362 13.5111 15.6977C13.4195 15.6593 13.3238 15.6317 13.2237 15.6147L9.79988 15.6401C9.45001 15.6401 9.21262 15.7212 9.08762 15.883L9.0376 15.9596C9.0126 16.0022 9 16.0704 9 16.1641C9 16.2578 9.02499 16.3728 9.07502 16.509C9.57483 17.71 10.1184 18.8683 10.7056 19.9841C11.2929 21.0998 11.8032 21.9986 12.2363 22.6795C12.6695 23.361 13.111 24.0042 13.5609 24.6087C14.0107 25.2135 14.3085 25.6011 14.4542 25.7713C14.6001 25.9419 14.7147 26.0694 14.798 26.1546L15.1104 26.4612C15.3104 26.6656 15.6039 26.9105 15.9913 27.1957C16.3788 27.4812 16.8078 27.7622 17.2784 28.0392C17.7492 28.3158 18.2968 28.5415 18.9217 28.7161C19.5465 28.8908 20.1546 28.961 20.7461 28.9271H22.1831C22.4746 28.9014 22.6954 28.8077 22.8455 28.646L22.8952 28.5819C22.9286 28.5311 22.9599 28.4521 22.9888 28.3459C23.018 28.2394 23.0326 28.1221 23.0326 27.9945C23.024 27.6284 23.0513 27.2984 23.1136 27.0045C23.1759 26.7108 23.2469 26.4894 23.3263 26.3402C23.4056 26.1912 23.4952 26.0655 23.5948 25.9635C23.6947 25.8614 23.7659 25.7995 23.8076 25.7782C23.8491 25.7567 23.8822 25.7422 23.9072 25.7335C24.1072 25.6654 24.3425 25.7313 24.6135 25.9317C24.8842 26.1318 25.1382 26.379 25.3758 26.6727C25.6132 26.9667 25.8985 27.2965 26.2317 27.6627C26.565 28.029 26.8565 28.3013 27.1063 28.4804L27.3562 28.6337C27.523 28.736 27.7396 28.8297 28.0062 28.9149C28.2724 29 28.5056 29.0213 28.7058 28.9787L31.9046 28.9277C32.221 28.9277 32.4672 28.8742 32.6418 28.7679C32.8168 28.6614 32.9207 28.5441 32.9543 28.4166C32.9877 28.2888 32.9895 28.144 32.9606 27.982C32.931 27.8204 32.9018 27.7074 32.8727 27.6435Z" fill="white"/>
<defs>
<linearGradient id="paint0_linear_83_966" x1="1.56462e-07" y1="36.5" x2="56" y2="8.5" gradientUnits="userSpaceOnUse">
<stop stop-color="#009BDE"/>
<stop offset="1" stop-color="#5ECFFF"/>
</linearGradient>
</defs>
</svg>
