<svg width="44" height="44" viewBox="0 0 44 44" fill="none" xmlns="http://www.w3.org/2000/svg">
<circle cx="22" cy="22" r="22" fill="url(#paint0_linear_83_965)"/>
<path fill-rule="evenodd" clip-rule="evenodd" d="M21.5001 13.0001C16.8019 13.0001 13 16.7997 13 21.5002C13 23.2729 13.5406 24.9125 14.5008 26.3214C14.5732 26.4287 14.5927 26.5631 14.5539 26.6866L13.6906 29.5753L16.5196 28.5991V28.5992C16.642 28.5583 16.7765 28.5755 16.8848 28.6456C18.2099 29.5053 19.7963 30.0003 21.5 30.0003C26.2005 30.0003 30.0001 26.2006 30.0001 21.5001C30.0001 16.7996 26.2005 13 21.5 13L21.5001 13.0001ZM18.0204 16.7055L19.5676 19.2622L18.9234 19.8997L18.9236 19.8999C18.7887 20.0358 18.7615 20.2453 18.8572 20.4111C19.8402 22.1134 21.0049 23.4377 22.6357 24.1565C22.7956 24.2276 22.9827 24.1934 23.1072 24.0702L23.7911 23.3863L26.2881 24.9469C26.0116 25.5691 25.6512 25.9396 25.2389 26.1554C24.7613 26.4055 24.1781 26.4527 23.5123 26.3147C22.1809 26.0387 20.5728 24.9924 19.2623 23.6518C17.9518 22.3113 16.9376 20.6812 16.6791 19.355C16.5498 18.692 16.6069 18.121 16.8518 17.6683C17.0625 17.2785 17.4207 16.9448 18.0206 16.7054L18.0204 16.7055Z" fill="white"/>
<defs>
<linearGradient id="paint0_linear_83_965" x1="-5.5" y1="28.5" x2="54" y2="4" gradientUnits="userSpaceOnUse">
<stop stop-color="#00A867"/>
<stop offset="1" stop-color="#00FF9D"/>
</linearGradient>
</defs>
</svg>
