<svg width="20" height="20" viewBox="0 0 20 20" fill="none" xmlns="http://www.w3.org/2000/svg">
<path d="M19.9989 1.69068C19.9956 2.12284 19.8065 2.57863 19.5026 2.88583L19.4756 2.91284C19.2595 3.1323 19.0434 3.34499 18.8273 3.56107L12.3882 9.99954L19.5027 17.1134C19.8235 17.4341 19.9788 17.8595 19.9991 18.3085C20.016 18.761 19.7965 19.1796 19.5027 19.5037C19.2191 19.8177 18.7227 20 18.3075 20C17.8753 19.9966 17.4194 19.8076 17.1122 19.5037L17.0852 19.4767C16.8657 19.2606 16.653 19.0445 16.4369 18.8285L10.0015 12.3869L2.8869 19.5008C2.56275 19.8249 2.14068 19.9768 1.69162 19.9971C1.23917 20.0139 0.820502 19.7945 0.496354 19.5008C0.182338 19.2172 0 18.7208 0 18.3056C0.00337651 17.8735 0.192464 17.4177 0.496354 17.1105L0.523366 17.0835C0.739465 16.864 0.955563 16.6513 1.17166 16.4352L7.61386 10.0005L0.499287 2.8866C0.175139 2.56249 0.0231967 2.14046 0.0029328 1.69145C-0.01395 1.23904 0.205522 0.820418 0.499287 0.496303C0.782919 0.182319 1.27928 0 1.69456 0C2.12675 0.00337617 2.5826 0.192444 2.88983 0.496303L2.91684 0.523313C3.13632 0.739389 3.34904 0.955466 3.56514 1.17154L10.0005 7.61309L17.1151 0.499236C17.4359 0.178498 17.8613 0.0231943 18.3104 0.00293251C18.7629 -0.0139486 19.1815 0.205501 19.5057 0.499236C19.8163 0.782839 19.9986 1.27575 19.9986 1.69105L19.9989 1.69068Z" fill="#C70000"/>
</svg>
