<svg width="54" height="54" viewBox="0 0 54 54" fill="none" xmlns="http://www.w3.org/2000/svg">
<circle cx="27" cy="27" r="26" stroke="url(#paint0_linear_201_1240)" stroke-width="2"/>
<path d="M27.0003 14.4C22.0372 14.4 18 18.5233 18 23.5909C18 25.6564 19.4143 28.9379 22.2041 33.3439C24.2348 36.5511 26.2948 39.234 26.3152 39.2602C26.4803 39.475 26.7329 39.6 27 39.6C27.2671 39.6 27.5197 39.4752 27.6848 39.2602C27.7052 39.234 29.7655 36.5507 31.7959 33.3439C34.5855 28.9377 36 25.6559 36 23.5909C36.0004 18.5231 31.9633 14.4 27.0002 14.4H27.0003ZM27.0349 27.8715C24.7694 27.8715 22.9259 25.9909 22.9259 23.6792C22.9259 21.3675 24.769 19.4869 27.0349 19.4869C29.3008 19.4869 31.1439 21.3675 31.1439 23.6792C31.1439 25.9909 29.3008 27.8715 27.0349 27.8715Z" fill="#41A981"/>
<defs>
<linearGradient id="paint0_linear_201_1240" x1="77.4" y1="27.6" x2="5.4" y2="27.6" gradientUnits="userSpaceOnUse">
<stop stop-color="#41A981"/>
<stop offset="1" stop-color="#41A981" stop-opacity="0"/>
</linearGradient>
</defs>
</svg>
