<svg width="114" height="91" viewBox="0 0 114 91" fill="none" xmlns="http://www.w3.org/2000/svg">
<path d="M0 0H114V76C114 84.2843 107.284 91 99 91H15C6.71573 91 0 84.2843 0 76V0Z" fill="white"/>
<g clip-path="url(#clip0_171_1718)">
<path d="M98.647 31.5473L89.3988 21.8238V12.1781C89.398 11.601 89.1667 11.0477 88.7558 10.6395C88.3449 10.2312 87.7877 10.0013 87.2064 10H76.391C75.8091 10 75.251 10.2295 74.8395 10.6379C74.428 11.0464 74.1969 11.6004 74.1969 12.1781V13.7517H59.852C59.1745 13.7658 58.5297 14.0434 58.0562 14.5247L41.0063 32.087C40.6973 32.4005 40.4754 32.7881 40.3622 33.2121C40.249 33.6361 40.2483 34.0819 40.3603 34.5062C40.4722 34.9305 40.693 35.3188 41.001 35.6333C41.3091 35.9477 41.6939 36.1776 42.118 36.3005V47.8974H42.105C42.5947 47.8974 43.0845 47.9071 43.5742 47.9136V36.3167C43.9983 36.1809 44.3808 35.9406 44.686 35.6182L59.9075 19.9488L75.1258 35.615C75.4296 35.9359 75.8113 36.1741 76.2343 36.307L76.1885 50.5357C86.648 52.3184 93.3675 54.7006 97.6087 56.8139V36.2632C98.056 36.0885 98.4531 35.8071 98.7648 35.4439C99.0766 35.0807 99.2934 34.6468 99.3962 34.1807C99.499 33.7146 99.4846 33.2305 99.3542 32.7712C99.2238 32.3119 98.9815 31.8916 98.6486 31.5473H98.647ZM77.7264 34.6264C77.5168 34.8267 77.2357 34.9361 76.9448 34.9306C76.654 34.9251 76.3773 34.8052 76.1755 34.5973L60.4332 18.4011C60.365 18.3309 60.2832 18.275 60.1927 18.2369C60.1023 18.1987 60.005 18.179 59.9067 18.179C59.8084 18.179 59.7111 18.1987 59.6207 18.2369C59.5302 18.275 59.4484 18.3309 59.3802 18.4011L43.6346 34.607C43.4311 34.808 43.1564 34.9217 42.8693 34.9239C42.5823 34.9261 42.3058 34.8165 42.0992 34.6186C41.8926 34.4208 41.7724 34.1504 41.7643 33.8656C41.7562 33.5807 41.8609 33.3041 42.056 33.095L59.1174 15.5343C59.2202 15.4296 59.3431 15.3464 59.4788 15.2897C59.6145 15.2329 59.7602 15.2036 59.9075 15.2036C60.0548 15.2036 60.2006 15.2329 60.3363 15.2897C60.472 15.3464 60.5948 15.4296 60.6976 15.5343L77.7557 33.0934C77.9576 33.3017 78.0678 33.581 78.0623 33.87C78.0568 34.159 77.936 34.4339 77.7264 34.6345V34.6264ZM82.9716 26.389L75.8735 19.3492C75.805 19.2825 75.7507 19.2027 75.714 19.1147C75.6772 19.0268 75.6587 18.9323 75.6596 18.8371V12.1781C75.6594 12.0827 75.6782 11.9882 75.7148 11.9C75.7515 11.8118 75.8054 11.7317 75.8733 11.6642C75.9413 11.5968 76.022 11.5433 76.1108 11.5069C76.1997 11.4705 76.2949 11.4518 76.391 11.452H82.2419C82.3379 11.452 82.433 11.4708 82.5218 11.5073C82.6105 11.5438 82.6911 11.5973 82.759 11.6647C82.827 11.7321 82.8808 11.8121 82.9176 11.9002C82.9543 11.9883 82.9733 12.0827 82.9733 12.1781L82.9716 26.389ZM90.4812 47.5376C90.4807 47.7301 90.4036 47.9145 90.2665 48.0505C90.1294 48.1866 89.9437 48.2632 89.7498 48.2637H86.1583C85.9645 48.2632 85.7787 48.1866 85.6416 48.0505C85.5045 47.9145 85.4273 47.7301 85.4269 47.5376V42.8234C85.399 42.4812 85.4444 42.1371 85.5602 41.8137C85.6759 41.4902 85.8593 41.1947 86.0984 40.9467C86.3374 40.6987 86.6266 40.5038 86.9471 40.3747C87.2675 40.2457 87.6118 40.1854 87.9573 40.198C88.2913 40.1818 88.6251 40.2347 88.9374 40.3535C89.2497 40.4724 89.5337 40.6544 89.7712 40.8881C90.0088 41.1218 90.1947 41.402 90.3172 41.7109C90.4397 42.0198 90.4961 42.3506 90.4828 42.6824V47.5441L90.4812 47.5376ZM70.3784 35.8581H60.9458C60.5561 35.8581 60.1824 36.0117 59.9069 36.2853C59.6313 36.5588 59.4765 36.9298 59.4765 37.3166V48.5829C59.9695 48.6186 60.4593 48.6558 60.9458 48.6947V37.3085H70.3784V49.6687C70.8682 49.7319 71.3579 49.7984 71.8477 49.8648V37.3101C71.846 36.9244 71.6904 36.5551 71.4151 36.283C71.1397 36.0108 70.767 35.8581 70.3784 35.8581Z" fill="url(#paint0_linear_171_1718)"/>
<path d="M104 63.8975C104 63.8975 85.4188 47.959 36.7405 49.894C-11.9377 51.829 15.5032 62.3563 43.1073 58.5836C70.7115 54.8108 73.8198 53.1303 104 63.8975Z" fill="url(#paint1_linear_171_1718)"/>
<path d="M27.3911 47.8893C31.7989 47.9817 35.8427 45.8377 38.471 42.5754C36.8139 42.3134 35.2212 41.7444 33.7759 40.8981C34.8739 40.18 35.8554 39.3002 36.6867 38.289C34.7146 37.9162 32.9319 37.1708 31.4283 35.9586C32.6495 35.4935 33.6812 34.56 34.5301 33.5277C32.7441 33.2014 31.0921 32.3669 29.7751 31.1257C28.4581 29.8845 27.5329 28.2901 27.112 26.5365C26.361 29.9851 23.5433 32.6947 20.0693 33.4337C20.8269 34.4055 21.7876 35.2028 22.8854 35.7706C21.4216 36.9267 19.7238 37.7559 17.9079 38.2015C18.6993 39.1563 19.615 40.0027 20.6309 40.7182C19.2736 41.5527 17.783 42.1517 16.2231 42.4895C18.8515 45.7518 22.8903 47.8958 27.3977 47.8958L27.3911 47.8893Z" fill="url(#paint2_linear_171_1718)"/>
<path d="M34.1775 61.0614C34.3141 61.0303 34.4563 61.0331 34.5916 61.0695C34.7269 61.106 34.851 61.175 34.9529 61.2705C35.2163 61.4769 35.2892 61.6578 35.1717 61.8134C35.0465 61.8857 34.9327 61.9758 34.8338 62.0808C34.7225 62.2009 34.6275 62.3349 34.5513 62.4795C34.4654 62.6383 34.3897 62.7879 34.3244 62.9284C34.246 63.1086 34.1848 63.2958 34.1416 63.4875L34.0012 64.0644C33.9642 64.2167 33.925 64.4328 33.8836 64.7126C33.8423 64.9924 33.8124 65.2037 33.7939 65.3463C33.7743 65.4889 33.7449 65.7114 33.7057 66.014C33.6665 66.3165 33.6404 66.5271 33.6273 66.646C33.5 67.6551 33.2089 68.4621 32.7539 69.0671C32.2985 69.6732 31.5883 70.0541 30.6186 70.2178C29.9983 70.3258 29.5014 70.2539 29.1281 70.0022C28.9481 69.8873 28.7937 69.737 28.6744 69.5605C28.555 69.3841 28.4733 69.1853 28.4343 68.9764C28.2668 69.4927 27.9676 69.9572 27.5658 70.3247C27.1695 70.684 26.6777 70.923 26.1488 71.0135C24.5163 71.3133 23.7229 70.4446 23.8323 68.3492C23.9612 66.8016 24.0331 66.0285 24.1914 64.4793C23.9816 64.7642 23.7269 65.0137 23.4372 65.2182C23.166 65.4214 22.8776 65.6009 22.5752 65.7547C22.3271 65.874 22.0973 66.0279 21.8928 66.2117C21.8068 66.2794 21.736 66.3643 21.6851 66.4609C21.6342 66.5575 21.6043 66.6636 21.5974 66.7724C21.5974 67.2197 21.8422 67.4385 22.3271 67.432C22.4457 67.4385 22.5039 67.5422 22.5018 67.7431C22.5018 67.9441 22.4201 68.0672 22.27 68.1029C21.6382 68.2536 21.1027 68.2082 20.706 67.9911C20.5466 67.9152 20.4074 67.8033 20.2996 67.6642C20.1918 67.5252 20.1184 67.363 20.0854 67.1906C20.0523 67.0182 20.0606 66.8406 20.1094 66.6719C20.1582 66.5033 20.2463 66.3484 20.3664 66.2198C20.6065 65.9574 20.8904 65.7381 21.2056 65.5715C21.5549 65.3771 21.9179 65.1848 22.2944 64.9946C22.6976 64.7883 23.0836 64.5504 23.4486 64.2832C23.8083 64.0326 24.1201 63.7203 24.3694 63.3611C24.4962 63.2144 24.6684 63.1135 24.8591 63.0742C25.0878 63.0023 25.3285 62.9753 25.5676 62.9948C25.7853 63.0164 25.9023 63.0883 25.9186 63.2103C25.6672 65.1664 25.4893 66.9377 25.3717 68.5194C25.3004 68.9171 25.344 69.3267 25.4974 69.7008C25.5469 69.8613 25.6581 69.996 25.8069 70.0758C25.9557 70.1556 26.1301 70.174 26.2925 70.127C26.6924 70.046 27.0548 69.7445 27.3715 69.2114C27.7071 68.6168 27.9118 67.9585 27.9723 67.2796C28.0066 66.9474 28.1927 65.3981 28.6253 62.6302C28.6656 62.507 28.8076 62.4168 29.0514 62.3595C29.2905 62.3036 29.539 62.3003 29.7795 62.3498C30.0211 62.3995 30.1577 62.4957 30.1893 62.6383C29.8383 64.5635 29.6016 66.3656 29.4644 68.0462C29.4042 68.3923 29.4776 68.7482 29.6701 69.0428C29.8611 69.3329 30.1599 69.435 30.5354 69.367C30.7429 69.3224 30.9386 69.2351 31.1099 69.1106C31.2812 68.986 31.4242 68.8271 31.5296 68.6442C31.8197 68.183 31.997 67.6607 32.0471 67.1192C32.0852 66.8577 32.133 66.5018 32.1907 66.0512C32.2484 65.6007 32.2909 65.2669 32.3181 65.0497C32.3442 64.8336 32.3877 64.5462 32.4487 64.1876C32.5096 63.8289 32.564 63.5588 32.6119 63.3773C32.6576 63.2001 32.718 62.984 32.7931 62.729C32.847 62.5206 32.9271 62.3197 33.0315 62.131C33.1153 61.9906 33.2154 61.8404 33.3319 61.6805C33.4362 61.5319 33.5647 61.4015 33.7122 61.2948C33.8546 61.1943 34.0115 61.1156 34.1775 61.0614Z" fill="url(#paint3_linear_171_1718)"/>
<path d="M37.8637 64.0919C38.3646 63.9961 38.8829 64.0526 39.3509 64.254C39.5294 64.3325 39.6905 64.4452 39.8249 64.5856C39.9594 64.7261 40.0646 64.8915 40.1345 65.0724C40.2688 65.4589 40.3091 65.8715 40.2521 66.2765C40.1938 66.7375 40.0511 67.184 39.8309 67.594C40.7108 67.5649 41.323 67.0349 41.687 65.9961C41.7092 65.9732 41.7368 65.9562 41.7674 65.9469C41.798 65.9375 41.8304 65.9361 41.8617 65.9426C41.951 65.9499 42.0372 65.9782 42.1131 66.0253C42.1948 66.0739 42.2252 66.1225 42.2045 66.1712C41.6626 67.5503 40.7353 68.1985 39.3901 68.1337C38.8312 68.7373 38.072 69.121 37.2515 69.2146C36.5201 69.3135 35.9259 69.2049 35.4557 68.8905C34.9856 68.5761 34.7717 67.9959 34.8125 67.1759C34.8428 66.4032 35.172 65.6719 35.7316 65.134C36.3065 64.5619 37.0564 64.1954 37.8637 64.0919ZM37.8196 64.9184C37.6135 64.9599 37.419 65.0457 37.2498 65.1697C37.0806 65.2937 36.9407 65.453 36.8401 65.6364C36.5839 66.0318 36.4349 66.4862 36.4075 66.9555C36.3553 67.9976 36.6638 68.4708 37.3266 68.3816C37.4978 68.3587 37.6625 68.3009 37.8102 68.212C37.958 68.123 38.0857 68.0048 38.1853 67.8647C38.1137 67.8081 38.065 67.7278 38.0483 67.6385C38.0315 67.5492 38.0477 67.4569 38.0939 67.3785C38.1341 67.2949 38.1996 67.226 38.2813 67.1812C38.363 67.1365 38.4567 67.1182 38.5494 67.1289C38.6375 66.8546 38.6982 66.5723 38.7306 66.2862C38.7609 66.0392 38.7548 65.7892 38.7126 65.544C38.6839 65.345 38.58 65.1642 38.422 65.0384C38.3355 64.9774 38.2369 64.9352 38.1329 64.9145C38.0288 64.8939 37.9215 64.8952 37.818 64.9184H37.8196Z" fill="url(#paint4_linear_171_1718)"/>
<path d="M44.81 63.3254C45.3101 63.2475 45.8223 63.3215 46.2793 63.5377C46.4536 63.6221 46.6091 63.7403 46.7367 63.8853C46.8643 64.0303 46.9613 64.1992 47.0221 64.382C47.1378 64.7741 47.1585 65.1878 47.0825 65.5894C47.001 66.0523 46.8351 66.4967 46.5927 66.9004C47.471 66.9004 48.1077 66.3916 48.5191 65.3657C48.542 65.3435 48.5701 65.3274 48.6009 65.3189C48.6318 65.3104 48.6643 65.3098 48.6954 65.3171C48.7837 65.3273 48.8683 65.3585 48.9419 65.4079C49.0214 65.4597 49.0491 65.5094 49.0252 65.557C48.4195 66.9182 47.4645 67.5341 46.1242 67.4255C45.54 68.0058 44.7669 68.3608 43.9432 68.427C43.2085 68.5016 42.6208 68.3719 42.1752 68.0365C41.7295 67.701 41.5352 67.1192 41.6152 66.3008C41.6852 65.5248 42.0514 64.8047 42.6388 64.288C43.237 63.74 43.9997 63.4019 44.81 63.3254ZM44.7268 64.1503C44.3382 64.2005 43.9987 64.4306 43.7179 64.8358C43.4467 65.2198 43.2782 65.6659 43.2281 66.1323C43.1269 67.1711 43.411 67.654 44.077 67.5908C44.2493 67.5733 44.4161 67.5212 44.5674 67.4376C44.7187 67.354 44.8512 67.2407 44.957 67.1046C44.889 67.045 44.8448 66.9632 44.8322 66.8741C44.8197 66.785 44.8396 66.6943 44.8884 66.6184C44.9325 66.5365 45.001 66.4701 45.0846 66.4283C45.1682 66.3866 45.2627 66.3714 45.3553 66.3851C45.4566 66.1142 45.531 65.8341 45.5773 65.5489C45.6196 65.3031 45.6257 65.0525 45.5953 64.805C45.5765 64.6057 45.4812 64.4211 45.3292 64.2897C45.2443 64.225 45.1466 64.1791 45.0424 64.155C44.9382 64.131 44.83 64.1294 44.7251 64.1503H44.7268Z" fill="url(#paint5_linear_171_1718)"/>
<path d="M53.7644 59.7715C53.8541 59.6532 54.1317 59.6094 54.5953 59.6515C55.0589 59.6937 55.2908 59.7893 55.2875 59.9416C55.1003 60.4386 54.9588 60.8205 54.863 61.0874C54.7667 61.3548 54.6051 61.8166 54.3814 62.473C54.1578 63.1293 53.9978 63.6641 53.8917 64.0774C53.7856 64.4906 53.6942 64.9363 53.6044 65.4143C53.5203 65.7622 53.4988 66.1221 53.5407 66.4774C53.588 66.7076 53.704 66.821 53.8672 66.8016C54.1186 66.7854 54.4157 66.5828 54.7504 66.2084C55.0886 65.8271 55.3675 65.3977 55.5781 64.9347C55.602 64.9131 55.631 64.898 55.6624 64.8906C55.6938 64.8833 55.7266 64.8839 55.7577 64.8925C55.8451 64.9056 55.928 64.9395 55.9993 64.9914C56.0755 65.0454 56.101 65.0956 56.076 65.1421C55.764 65.7845 55.3445 66.3698 54.8353 66.8729C54.4191 67.303 53.86 67.569 53.2615 67.6216C53.1014 67.6419 52.9386 67.623 52.7875 67.5665C52.6364 67.51 52.5016 67.4176 52.3947 67.2975C52.2827 67.1586 52.2006 66.9982 52.1537 66.8265C52.1068 66.6547 52.0961 66.4752 52.1221 66.2992C51.6323 67.2829 50.9385 67.8015 50.0471 67.8793C49.4072 67.9344 48.9419 67.7723 48.6595 67.3736C48.3771 66.975 48.2889 66.4775 48.3999 65.8795C48.5261 65.2608 48.8067 64.6835 49.2162 64.2005C49.6366 63.6746 50.2047 63.2843 50.8487 63.0791C51.4437 62.8765 52.0749 62.7997 52.7016 62.8538C52.9972 61.8073 53.352 60.7783 53.7644 59.7715ZM52.4877 63.6609C52.0856 63.626 51.6817 63.7041 51.3221 63.8861C50.908 64.0896 50.5629 64.409 50.3296 64.805C50.1743 65.0529 50.0566 65.3221 49.9802 65.604C49.8975 65.8813 49.8665 66.1713 49.8888 66.4596C49.9127 66.7297 50.0112 66.9042 50.1843 66.9831C50.4259 67.1111 50.7116 67.0301 51.0479 66.7416C51.4324 66.3772 51.7336 65.9351 51.9311 65.4451C52.1685 64.8692 52.3548 64.2738 52.4877 63.6657V63.6609Z" fill="url(#paint6_linear_171_1718)"/>
<path d="M65.8009 68.79C65.416 68.7973 65.0355 68.707 64.6957 68.5275C64.3643 68.3484 64.0789 68.0961 63.8614 67.7901C63.3227 66.9685 63.2199 65.6104 63.4615 63.8002C63.575 62.9571 63.7319 62.1204 63.9316 61.2932H63.8745C63.5964 62.1082 63.2569 62.9012 62.8591 63.6657C61.6135 66.0966 60.3205 67.3736 58.9231 67.4838C58.2391 67.5373 57.6742 67.4239 57.2432 67.1597C57.0472 67.0472 56.8858 66.8838 56.7762 66.6871C56.6666 66.4904 56.6131 66.2678 56.6213 66.0431C56.6228 65.751 56.7096 65.4657 56.871 65.2215C57.0391 64.965 57.2745 64.7588 57.5518 64.6251C57.7074 64.5592 57.9033 64.5911 58.1395 64.7207C58.3757 64.8504 58.4725 64.9811 58.4301 65.1129C58.1036 65.4954 57.9844 65.86 58.0824 66.2052C58.1169 66.3623 58.2118 66.4999 58.3468 66.5888C58.4817 66.6777 58.6463 66.711 58.8056 66.6816C60.8282 66.2862 62.2338 62.4211 63.0942 60.6401C62.7781 60.8487 62.4376 61.0185 62.0804 61.1457C61.6722 61.2991 61.3147 61.4185 61.0078 61.5039C60.7097 61.5849 60.4224 61.7013 60.1524 61.8507C59.9301 61.9518 59.755 62.1332 59.6626 62.3579C59.519 62.7728 59.6708 63.0353 60.1148 63.1488C60.1801 63.1698 60.2177 63.2314 60.2226 63.3303C60.2259 63.437 60.1899 63.5413 60.1214 63.6236C60.0882 63.6708 60.0446 63.7099 59.994 63.7379C59.9434 63.766 59.887 63.7823 59.8291 63.7856C59.5732 63.8059 59.3159 63.7745 59.0726 63.6931C58.8293 63.6118 58.6051 63.4823 58.4138 63.3124C58.2598 63.1852 58.1496 63.0135 58.0984 62.8213C58.0473 62.629 58.0576 62.4257 58.1281 62.2396C58.2897 61.8515 58.5937 61.5387 58.9786 61.3645C59.4048 61.1444 59.8605 60.9861 60.332 60.8945C60.8858 60.7801 61.4313 60.6285 61.9645 60.4408C62.5142 60.2638 63.0294 59.9947 63.4876 59.6451C63.5722 59.5613 63.6803 59.5048 63.7978 59.483C63.958 59.4431 64.1224 59.4219 64.2875 59.4198C64.4511 59.4157 64.6148 59.4233 64.7773 59.4425C64.9137 59.4558 65.0471 59.4908 65.1724 59.5462C65.2768 59.5964 65.3242 59.6564 65.3127 59.7245C64.8687 61.9803 64.6418 63.5215 64.601 64.3431C64.5553 64.9177 64.5938 65.4958 64.7152 66.0593C64.8187 66.5024 65.0364 66.9112 65.347 67.2456C65.6043 67.5325 65.9477 67.7296 66.3265 67.8079C66.3837 67.8348 66.4313 67.8784 66.4628 67.9329C66.4943 67.9873 66.5083 68.05 66.5028 68.1126C66.4921 68.2861 66.415 68.449 66.2874 68.568C66.2267 68.637 66.1519 68.6925 66.0681 68.7308C65.9842 68.7691 65.8932 68.7892 65.8009 68.79Z" fill="url(#paint7_linear_171_1718)"/>
<path d="M69.9017 62.52C70.4573 62.4654 71.0181 62.4977 71.5636 62.6156C72.0767 62.7041 72.5549 62.9324 72.9447 63.2752C73.0035 63.3692 72.9284 63.5037 72.7194 63.6787C72.5105 63.8537 72.3505 63.9164 72.2395 63.8667C71.6691 63.4546 70.9663 63.2644 70.2641 63.3319C69.845 63.3706 69.4436 63.5181 69.1002 63.7597C68.7306 64.0094 68.4194 64.3349 68.1876 64.7142C67.9778 65.0385 67.8372 65.4019 67.7746 65.7822C67.7256 66.1247 67.7767 66.3618 67.928 66.4936C68.2382 66.7578 68.6806 66.5844 69.2651 65.9718C69.8406 65.3763 70.2898 64.672 70.5858 63.9007C70.7229 63.7829 70.9737 63.764 71.3383 63.844C71.7029 63.9239 71.8945 64.032 71.913 64.1681C71.5865 64.9508 71.3792 65.5116 71.2812 65.8292C71.118 66.3737 71.1718 66.6654 71.4787 66.6719C71.7399 66.6719 72.0844 66.5099 72.5023 66.1728C72.9213 65.8375 73.2748 65.4288 73.5455 64.9671C73.5714 64.948 73.6017 64.9357 73.6336 64.9311C73.6655 64.9266 73.6981 64.93 73.7283 64.9411C73.8129 64.9617 73.8909 65.0029 73.9553 65.0611C74.0238 65.121 74.0434 65.1745 74.0124 65.2231C73.6037 65.8427 73.0939 66.3904 72.504 66.8437C72.0147 67.2355 71.402 67.4438 70.7735 67.432C70.628 67.4379 70.4837 67.4043 70.356 67.3349C70.2283 67.2656 70.1221 67.163 70.0487 67.0382C69.9017 66.787 69.8854 66.4515 69.9834 66.035C69.7019 66.4177 69.3666 66.7583 68.9875 67.0463C68.6199 67.3026 68.1778 67.4323 67.7289 67.4158C67.1923 67.4158 66.7804 67.2537 66.493 66.9296C66.2057 66.6055 66.1257 66.1355 66.2612 65.5262C66.4245 64.7726 66.8636 64.1049 67.5803 63.528C68.238 62.9737 69.0452 62.6232 69.9017 62.52Z" fill="url(#paint8_linear_171_1718)"/>
<path d="M77.5386 67.8209C77.2795 67.8259 77.0228 67.7704 76.7893 67.6588C76.7058 67.613 76.6341 67.5486 76.5797 67.4708C76.5253 67.3929 76.4898 67.3037 76.4759 67.2099C76.4404 66.9946 76.4476 66.7744 76.4971 66.5617C76.5662 66.2716 76.659 65.9876 76.7746 65.7125C76.0122 65.6655 75.6319 65.6445 74.8678 65.6056C74.4548 66.6476 74.2148 67.2505 74.1675 67.4044C74.1283 67.5211 73.8851 67.5665 73.4427 67.5665C72.9529 67.5567 72.6835 67.4757 72.6395 67.3137C72.6305 67.2879 72.6305 67.26 72.6395 67.2343C73.0166 66.2878 73.5798 64.8374 74.3585 62.8878C74.4156 62.7533 74.685 62.6999 75.1486 62.7258C75.6123 62.7517 75.8686 62.8441 75.9045 62.9835C75.9135 63.0052 75.9135 63.0297 75.9045 63.0515C75.8196 63.2536 75.7352 63.4572 75.6514 63.6625C75.5676 63.8678 75.4784 64.0838 75.3837 64.3107L75.1715 64.8163C75.9322 64.8568 76.3142 64.8779 77.0734 64.9249C77.1931 64.657 77.3498 64.2859 77.5435 63.8116C77.7378 63.3384 77.8406 63.0937 77.8521 63.0791C77.9027 62.9527 78.1671 62.9008 78.6324 62.9348C79.0977 62.9689 79.3785 63.0677 79.4095 63.2087C79.4141 63.2195 79.4164 63.2311 79.4164 63.2427C79.4164 63.2544 79.4141 63.266 79.4095 63.2768C79.4095 63.2768 78.2226 65.8973 78.1263 66.1047C77.8553 66.7221 77.8684 67.0365 78.1475 67.0592C78.4267 67.0819 78.7581 66.9328 79.1646 66.6022C79.5904 66.2513 79.9589 65.8369 80.2568 65.3738C80.2835 65.3557 80.3143 65.3444 80.3465 65.341C80.3787 65.3377 80.4113 65.3422 80.4412 65.3544C80.5248 65.3773 80.6012 65.4207 80.6632 65.4808C80.7296 65.5434 80.746 65.5975 80.7122 65.6428C79.6103 67.1224 78.554 67.8582 77.5386 67.8209Z" fill="url(#paint9_linear_171_1718)"/>
<path d="M82.3349 63.6803C82.844 63.4748 83.387 63.3649 83.9364 63.3562C84.4673 63.3527 84.9956 63.4314 85.502 63.5896C85.9849 63.729 86.4289 63.9769 86.7999 64.314C86.8499 64.4123 86.7596 64.543 86.5289 64.7061C86.2987 64.8682 86.1338 64.9168 86.0391 64.8439C85.5281 64.4208 84.8826 64.1911 84.2172 64.1957C83.7797 64.1904 83.3488 64.3024 82.97 64.5198C82.5546 64.7504 82.1912 65.0632 81.9023 65.4386C81.6478 65.7447 81.4644 66.1027 81.3652 66.4872C81.2885 66.8259 81.3244 67.0722 81.4713 67.2099C81.6607 67.3882 81.9611 67.372 82.3643 67.15C82.8331 66.8701 83.2405 66.4998 83.5626 66.061C83.8797 65.6581 84.1636 65.2305 84.4115 64.7823C84.5301 64.6743 84.7745 64.6775 85.1445 64.792C85.5145 64.9066 85.6985 65.0232 85.6963 65.1421C85.5058 65.4802 85.2517 65.9734 84.9339 66.6217C84.6161 67.2699 84.3603 67.7901 84.1666 68.1823C85.2229 67.9408 86.2007 67.2181 87.1198 66.0107C87.1486 65.9978 87.1797 65.9912 87.2113 65.9912C87.2428 65.9912 87.2739 65.9978 87.3027 66.0107C87.3849 66.0365 87.4591 66.0828 87.5182 66.1452C87.5813 66.21 87.5954 66.2641 87.5606 66.3073C87.0572 66.9579 86.4674 67.538 85.8073 68.0316C85.2555 68.4189 84.1748 68.6296 83.8254 68.9018C83.3357 69.294 82.9014 70.5224 82.4672 70.8935C82.0329 71.2647 81.4567 71.4073 80.7547 71.3651C80.2992 71.3376 79.9384 71.216 79.7082 70.9875C79.5934 70.8743 79.5129 70.7313 79.4759 70.5749C79.439 70.4184 79.4471 70.2548 79.4993 70.1027C79.5567 69.8887 79.6692 69.6932 79.8258 69.5355C79.9788 69.374 80.1541 69.2349 80.3465 69.1222C80.5732 68.9966 80.8122 68.8945 81.06 68.8176C81.3161 68.7322 81.5765 68.6602 81.8403 68.602C82.071 68.5534 82.3551 68.4994 82.6925 68.44C82.9373 68.0013 83.2138 67.4892 83.5218 66.9037C82.7855 67.7561 82.0068 68.1564 81.1742 68.0996C80.568 68.0586 80.1577 67.8425 79.9433 67.4514C79.7295 67.0641 79.7115 66.6038 79.896 66.0739C80.1069 65.5093 80.4525 65.0039 80.9032 64.6008C81.3169 64.2061 81.8029 63.8936 82.3349 63.6803ZM82.3676 69.1401C81.5938 69.3394 81.0861 69.6084 80.8461 69.9406C80.6584 70.1999 80.6665 70.3847 80.8559 70.4933C81.0453 70.6018 81.282 70.5678 81.5611 70.3701C81.7621 70.2166 81.9288 70.0235 82.0509 69.8029C82.0982 69.7219 82.1603 69.6003 82.2386 69.4334L82.3676 69.1401Z" fill="url(#paint10_linear_171_1718)"/>
<path d="M91.7202 64.3836C91.8291 64.267 92.0892 64.2556 92.5006 64.3496C92.912 64.4436 93.1226 64.5749 93.1356 64.7385C93.0883 64.8244 92.9887 64.993 92.8369 65.2425C92.6851 65.4921 92.5561 65.7093 92.4516 65.8908C92.3471 66.0723 92.2231 66.2975 92.0794 66.5601C91.9357 66.8226 91.8215 67.0463 91.7349 67.2391C91.6524 67.4205 91.5794 67.6061 91.5162 67.795C91.4616 67.9306 91.4414 68.0776 91.4574 68.2228C91.4612 68.2656 91.4794 68.306 91.509 68.3374C91.5386 68.3688 91.5779 68.3895 91.6207 68.3962C91.8688 68.4335 92.21 68.3071 92.6394 68.0024C93.0838 67.6842 93.4825 67.3075 93.8245 66.8826C93.8532 66.8674 93.8851 66.8595 93.9176 66.8595C93.9501 66.8595 93.982 66.8674 94.0107 66.8826C94.0915 66.9106 94.1636 66.9592 94.2196 67.0236C94.2806 67.0906 94.292 67.1446 94.2539 67.1856C92.9593 68.6004 91.8459 69.2373 90.8795 69.1044C90.7248 69.0972 90.5763 69.0422 90.4546 68.9472C90.3329 68.8522 90.244 68.7219 90.2004 68.5745C90.1548 68.4122 90.1426 68.2425 90.1645 68.0755C90.1864 67.9084 90.2419 67.7474 90.3277 67.6021C89.4184 68.4886 88.4813 68.8597 87.5067 68.7268C87.0056 68.6587 86.6905 68.4805 86.5436 68.1839C86.3966 67.8873 86.4227 67.5357 86.5925 67.1095C86.8616 66.4809 87.1629 65.8665 87.4953 65.2685C87.9247 64.4776 88.163 64.0466 88.2038 63.972C88.3132 63.8375 88.5858 63.8099 89.0201 63.9056C89.4543 64.0012 89.6731 64.1454 89.6323 64.2686C89.6061 64.3399 89.4053 64.6899 89.087 65.296C88.7687 65.9021 88.5336 66.3932 88.3622 66.7189C88.2107 66.9811 88.1006 67.2647 88.0357 67.56C87.9954 67.8096 88.0884 67.9478 88.3148 67.9749C88.5956 68.0089 88.9433 67.8906 89.3613 67.6216C89.7877 67.3499 90.1506 66.9907 90.4257 66.5682C90.6558 66.2279 91.077 65.4873 91.7202 64.3836Z" fill="url(#paint11_linear_171_1718)"/>
<path d="M94.0384 69.6003C93.6042 69.5209 93.3136 69.3362 93.1715 69.0477C93.1005 68.8906 93.0615 68.721 93.0568 68.5489C93.052 68.3767 93.0816 68.2053 93.1438 68.0446C93.2963 67.6157 93.5332 67.2212 93.8409 66.8842C93.8695 66.869 93.9015 66.8611 93.9339 66.8611C93.9664 66.8611 93.9984 66.869 94.027 66.8842C94.1079 66.9123 94.1799 66.9609 94.2359 67.0252C94.2969 67.0922 94.3083 67.1462 94.2702 67.1873C94.0045 67.4481 93.8364 67.7911 93.7935 68.1596C93.756 68.5178 93.8882 68.7301 94.1788 68.7868C94.305 68.8053 94.4337 68.7986 94.5574 68.7672C94.681 68.7357 94.797 68.6802 94.8987 68.6037C95.197 68.3939 95.4655 68.1454 95.697 67.8647C95.5553 67.7973 95.4291 67.7017 95.3263 67.5837C95.2235 67.4658 95.1463 67.3281 95.0995 67.1792C95.0032 66.8777 95.08 66.5309 95.3183 66.129C95.6154 65.6428 96.1035 65.309 96.7876 65.168C97.491 65.0282 98.219 65.0723 98.9 65.296C99.566 65.4899 100.167 65.8589 100.639 66.364C100.683 66.4115 100.653 66.4883 100.549 66.5941C100.44 66.7023 100.31 66.7868 100.167 66.8421C100.017 66.9015 99.9122 66.8988 99.8534 66.834C99.3196 66.2817 98.5884 65.9598 97.8177 65.9378C97.2332 65.9021 96.812 66.0999 96.5541 66.4807C96.368 66.7611 96.3288 67.0025 96.4464 67.2035C96.5063 67.3039 96.5905 67.388 96.6914 67.448C96.7924 67.508 96.9068 67.542 97.0243 67.547C97.2774 67.5785 97.533 67.5118 97.7377 67.3607C97.8073 67.271 97.9026 67.137 98.0234 66.9588C98.1029 66.8252 98.1918 66.6974 98.2895 66.5763C98.3537 66.5463 98.4233 66.5293 98.4942 66.5262C98.5651 66.5232 98.6359 66.5341 98.7025 66.5585C98.8898 66.6025 99.0667 66.6823 99.2233 66.7935C99.3854 66.9069 99.4431 66.9987 99.3963 67.069C98.345 68.5097 98.074 69.2924 98.5033 69.4302C98.7662 69.5144 99.1563 69.4188 99.6771 69.1206C100.171 68.8428 100.613 68.482 100.983 68.0543C101.011 68.0394 101.042 68.0316 101.073 68.0316C101.104 68.0316 101.135 68.0394 101.163 68.0543C101.24 68.0861 101.307 68.1369 101.359 68.2018C101.416 68.2709 101.43 68.3249 101.399 68.3638C100.864 68.9259 100.237 69.3934 99.5432 69.7462C98.8543 70.0962 98.2487 70.2323 97.736 70.1416C97.3116 70.0654 97.07 69.8321 97.0194 69.4496C96.9688 69.0671 97.0896 68.6166 97.3867 68.0964C97.2356 68.1623 97.0733 68.1991 96.9084 68.205C96.4088 68.7852 95.9452 69.1876 95.5175 69.4123C95.0609 69.6419 94.5385 69.7083 94.0384 69.6003Z" fill="url(#paint12_linear_171_1718)"/>
<path d="M47.2719 72.4185C47.442 72.3901 47.6168 72.4259 47.7616 72.519C47.8127 72.5537 47.8543 72.6004 47.8828 72.655C47.9113 72.7096 47.9258 72.7703 47.9249 72.8318C47.9219 72.9591 47.8759 73.0818 47.7943 73.1802C47.7588 73.2171 47.7155 73.2457 47.6675 73.2639C47.6195 73.2821 47.568 73.2895 47.5167 73.2855C47.3796 73.2855 47.3078 73.2661 47.3029 73.2094C47.3307 73.1677 47.3537 73.1232 47.3715 73.0765C47.3896 73.0313 47.4011 72.9838 47.4057 72.9355C47.4109 72.8955 47.4023 72.8549 47.3812 72.8204C47.3687 72.8045 47.3521 72.792 47.3332 72.7844C47.3143 72.7767 47.2937 72.774 47.2735 72.7766C47.1876 72.7847 47.1053 72.8152 47.0351 72.865C46.9648 72.9148 46.9091 72.9822 46.8735 73.0603C46.7539 73.2552 46.6933 73.4803 46.6989 73.7085C46.6966 73.783 46.71 73.8572 46.7381 73.9264C46.7662 73.9956 46.8084 74.0582 46.8621 74.1104C46.9173 74.1589 46.9821 74.1953 47.0525 74.2171C47.1229 74.2389 47.1971 74.2456 47.2702 74.2368C47.4905 74.2209 47.6996 74.1344 47.8661 73.9905C48.0621 73.8167 48.2057 73.5923 48.2808 73.3422C48.2879 73.3332 48.2978 73.3266 48.3089 73.3234C48.32 73.3203 48.3319 73.3206 48.3428 73.3244C48.3751 73.3315 48.4052 73.3459 48.431 73.3665C48.4603 73.3892 48.4723 73.4092 48.4669 73.4265C48.1991 74.1833 47.7257 74.5739 47.0515 74.6128C46.9331 74.624 46.8137 74.6101 46.7012 74.5721C46.5886 74.5341 46.4854 74.4729 46.3985 74.3924C46.3118 74.3132 46.2419 74.2177 46.1929 74.1114C46.1438 74.0051 46.1166 73.8902 46.1128 73.7733C46.0959 73.4477 46.2044 73.1278 46.4164 72.8787C46.5184 72.7466 46.6473 72.6373 46.7947 72.558C46.9421 72.4787 47.1047 72.4312 47.2719 72.4185Z" fill="url(#paint13_linear_171_1718)"/>
<path d="M51.0479 74.253C50.9774 74.2702 50.9037 74.2695 50.8336 74.2511C50.7634 74.2327 50.699 74.1971 50.6463 74.1477C50.6039 74.089 50.5741 74.0224 50.5586 73.9519C50.5432 73.8814 50.5425 73.8085 50.5565 73.7376C50.5565 73.7376 50.6055 73.4265 50.7067 72.8253C50.741 72.6097 50.6969 72.5011 50.5826 72.5157C50.4586 72.5482 50.3504 72.6235 50.2773 72.728C50.168 72.8449 50.086 72.9844 50.0373 73.1364C50.008 73.2499 49.9802 73.4605 49.9394 73.7247C49.8986 73.9888 49.8757 74.1785 49.8561 74.2465C49.8365 74.3146 49.7386 74.3421 49.5721 74.3567C49.4056 74.3713 49.3125 74.3437 49.2962 74.2757C49.3397 73.971 49.4116 73.514 49.5117 72.9047C49.5294 72.84 49.5294 72.7717 49.5117 72.707C49.5088 72.6931 49.5031 72.68 49.495 72.6684C49.4869 72.6567 49.4765 72.6468 49.4645 72.6393C49.4525 72.6317 49.439 72.6266 49.425 72.6243C49.4109 72.6221 49.3966 72.6226 49.3827 72.6259C49.2736 72.6538 49.1781 72.7193 49.1133 72.8107C49.0003 72.9314 48.9112 73.0721 48.8505 73.2255C48.7636 73.5992 48.7014 73.9782 48.6644 74.36C48.6546 74.3972 48.6024 74.428 48.5012 74.4491C48.4103 74.4712 48.316 74.475 48.2236 74.4604C48.1333 74.4453 48.0892 74.4113 48.0914 74.3583C48.1295 74.1206 48.1872 73.7879 48.2644 73.3601C48.3417 72.9322 48.4005 72.6011 48.4408 72.3666C48.4767 72.3061 48.5708 72.278 48.7232 72.2824C48.875 72.2824 48.9615 72.3229 48.9811 72.3909L48.9044 72.7929C48.9977 72.6402 49.1139 72.5025 49.2488 72.3845C49.3622 72.2759 49.5086 72.2075 49.6651 72.19C49.723 72.1794 49.7825 72.1834 49.8384 72.2015C49.8943 72.2196 49.9447 72.2513 49.9851 72.2937C50.0231 72.3439 50.0503 72.4013 50.0652 72.4623C50.0801 72.5233 50.0823 72.5867 50.0716 72.6486C50.31 72.2921 50.5614 72.1057 50.8405 72.0863C51.2079 72.0587 51.3597 72.2645 51.2928 72.707C51.2862 72.7513 51.2737 72.8112 51.2552 72.8868C51.2367 72.9625 51.2204 73.0354 51.2062 73.1056L51.1572 73.3293C51.1408 73.4004 51.1283 73.4723 51.1197 73.5448C51.1129 73.6029 51.1096 73.6613 51.1099 73.7198C51.1082 73.7626 51.1177 73.8051 51.1377 73.843C51.1459 73.8567 51.158 73.8678 51.1725 73.8747C51.1871 73.8816 51.2033 73.8841 51.2193 73.8819C51.314 73.8743 51.4228 73.7857 51.5458 73.6161C51.6755 73.4379 51.7773 73.2412 51.8478 73.0327C51.8556 73.0235 51.8659 73.0167 51.8775 73.0133C51.8891 73.0098 51.9015 73.0098 51.9131 73.0133C51.9461 73.0186 51.9771 73.0326 52.0029 73.0538C52.0323 73.0765 52.0426 73.0981 52.0339 73.1186C51.7645 73.8349 51.4364 74.2092 51.0479 74.253Z" fill="url(#paint14_linear_171_1718)"/>
<path d="M53.304 71.9258C53.3828 71.9191 53.462 71.931 53.5352 71.9606C53.6085 71.9902 53.6736 72.0366 53.7252 72.096C53.8255 72.22 53.8797 72.3745 53.8786 72.5336C53.8821 72.7114 53.8623 72.889 53.8199 73.0619C53.7839 73.2227 53.7228 73.3769 53.6387 73.5189C53.9766 73.5367 54.2264 73.3228 54.3864 72.8706C54.3941 72.8614 54.4045 72.8547 54.4161 72.8512C54.4277 72.8478 54.44 72.8478 54.4517 72.8512C54.4849 72.857 54.5159 72.8715 54.5414 72.8933C54.5697 72.9171 54.5795 72.9393 54.5708 72.9598C54.4917 73.226 54.3251 73.4582 54.0974 73.6194C53.9156 73.7309 53.6975 73.7686 53.4885 73.7247C53.3739 73.8657 53.2266 73.9769 53.0591 74.0488C52.9134 74.1121 52.7536 74.1367 52.5955 74.1201C52.4531 74.1058 52.3183 74.0493 52.2086 73.9581C52.1857 74.1061 52.1438 74.3583 52.0829 74.7149C52.0219 75.0714 51.9773 75.3415 51.949 75.5252C51.9262 75.5803 51.832 75.61 51.6666 75.6143C51.5012 75.6186 51.4179 75.5927 51.4168 75.5365C51.591 74.4053 51.7977 73.2499 52.0372 72.0701C52.0448 72.0366 52.0894 72.0117 52.171 71.9955C52.2538 71.9773 52.3396 71.9773 52.4224 71.9955C52.5073 72.0166 52.5579 72.0523 52.5726 72.1057C52.5726 72.1327 52.5536 72.2024 52.5155 72.3148C52.6125 72.1992 52.7328 72.1049 52.8685 72.0379C53.0043 71.971 53.1526 71.9328 53.304 71.9258ZM53.0379 72.3278C52.9313 72.3367 52.829 72.373 52.7408 72.4331C52.6303 72.4912 52.5343 72.5732 52.46 72.6729C52.4139 72.8348 52.3811 73.0001 52.362 73.1672C52.3229 73.3833 52.2929 73.5362 52.2723 73.6258C52.3195 73.6782 52.3782 73.719 52.4439 73.7451C52.5096 73.7713 52.5804 73.782 52.651 73.7766C52.7223 73.7764 52.7926 73.7602 52.8568 73.7294C52.9209 73.6985 52.9772 73.6537 53.0216 73.5983C53.0028 73.5782 52.9885 73.5544 52.9798 73.5284C52.971 73.5024 52.968 73.4748 52.971 73.4476C52.9737 73.4215 52.9818 73.3963 52.9947 73.3735C53.0076 73.3506 53.0251 73.3306 53.0461 73.3147C53.0619 73.2987 53.0821 73.2877 53.1041 73.2831C53.1262 73.2785 53.1492 73.2804 53.1701 73.2888C53.2634 73.0787 53.3075 72.8505 53.2991 72.6211C53.286 72.4185 53.1979 72.3229 53.0379 72.3278Z" fill="url(#paint15_linear_171_1718)"/>
<path d="M55.5911 71.7816C55.7776 71.7588 55.9662 71.8025 56.1233 71.9048C56.2542 71.9954 56.3452 72.1322 56.378 72.2872C56.413 72.4611 56.413 72.6401 56.378 72.8139C56.3416 73.011 56.2733 73.2009 56.1756 73.3763C56.5021 73.3941 56.7453 73.1834 56.9118 72.7426C56.9198 72.7337 56.9302 72.7272 56.9418 72.7241C56.9534 72.7209 56.9657 72.7212 56.9771 72.7248C57.0105 72.731 57.0415 72.7462 57.0669 72.7686C57.0952 72.7923 57.1045 72.8145 57.0947 72.835C56.8514 73.4184 56.4858 73.6712 55.9911 73.5951C55.8853 73.7111 55.7574 73.8052 55.6148 73.872C55.4722 73.9387 55.3177 73.9768 55.1602 73.984C55.0436 73.9981 54.9252 73.9864 54.8137 73.9497C54.7022 73.913 54.6003 73.8522 54.5153 73.7717C54.3521 73.6096 54.3047 73.3568 54.3521 73.0019C54.3922 72.6795 54.5412 72.3802 54.7749 72.1527C54.9919 71.9339 55.2824 71.8018 55.5911 71.7816ZM55.5356 72.1317C55.4547 72.1454 55.3781 72.1774 55.3116 72.2252C55.2451 72.2729 55.1905 72.3352 55.152 72.4072C55.0407 72.5746 54.9682 72.7644 54.9398 72.963C54.8766 73.4125 54.9692 73.6285 55.2173 73.6113C55.2843 73.6059 55.3492 73.5859 55.4074 73.5525C55.4655 73.5191 55.5155 73.4733 55.5536 73.4184C55.5285 73.3883 55.5136 73.3511 55.511 73.3122C55.5084 73.2732 55.5181 73.2344 55.5389 73.2012C55.5539 73.1687 55.5793 73.142 55.6112 73.1252C55.6431 73.1085 55.6797 73.1028 55.7152 73.1089C55.7587 72.992 55.792 72.8716 55.8148 72.7491C55.8352 72.6423 55.8424 72.5335 55.836 72.425C55.8345 72.3407 55.8039 72.2595 55.7495 72.1949C55.7215 72.1682 55.6875 72.1485 55.6503 72.1375C55.6131 72.1265 55.5738 72.1245 55.5356 72.1317Z" fill="url(#paint16_linear_171_1718)"/>
<path d="M58.4317 71.7314C58.46 71.6741 58.552 71.6509 58.7076 71.6617C58.8632 71.6725 58.9503 71.713 58.9688 71.7832C58.9601 71.8232 58.9394 71.9021 58.9068 72.0198C58.8741 72.1376 58.8475 72.2391 58.8268 72.3245C58.8061 72.4099 58.7816 72.5136 58.7533 72.6356C58.725 72.7577 58.7038 72.8625 58.6897 72.95C58.6755 73.0376 58.6657 73.1218 58.6603 73.2029C58.6526 73.2654 58.6581 73.3289 58.6766 73.3892C58.6929 73.4314 58.719 73.4524 58.7533 73.4508C58.8464 73.4508 58.959 73.3714 59.0798 73.211C59.2147 73.039 59.3246 72.8492 59.4063 72.647C59.4143 72.6381 59.4247 72.6316 59.4363 72.6285C59.4479 72.6253 59.4602 72.6255 59.4716 72.6292C59.5046 72.6362 59.535 72.6518 59.5598 72.6745C59.5881 72.6983 59.5973 72.7205 59.5875 72.741C59.261 73.4395 58.9051 73.7911 58.5411 73.8025C58.4795 73.8072 58.4179 73.7926 58.3651 73.7606C58.3123 73.7285 58.2711 73.6808 58.2472 73.6242C58.1855 73.4919 58.1717 73.3425 58.2081 73.2012C57.9567 73.6437 57.6448 73.8657 57.2775 73.8722C57.2028 73.8829 57.1266 73.8735 57.0568 73.845C56.9871 73.8165 56.9263 73.7699 56.8808 73.7101C56.8022 73.569 56.7773 73.4045 56.8106 73.2466C56.84 73.0505 56.8972 72.7604 56.9869 72.4007C57.0767 72.0409 57.1257 71.8335 57.1355 71.7994C57.1638 71.7346 57.2596 71.7071 57.4228 71.7168C57.5861 71.7265 57.6775 71.7735 57.6726 71.8318C57.6726 71.8643 57.6269 72.0279 57.5632 72.3083C57.4996 72.5887 57.4571 72.8139 57.4212 72.9663C57.3883 73.0905 57.3723 73.2186 57.3739 73.3471C57.3804 73.4551 57.4261 73.5091 57.511 73.5091C57.6525 73.484 57.7785 73.4049 57.862 73.2888C57.9968 73.1373 58.097 72.9588 58.1558 72.7653C58.2113 72.5935 58.2995 72.2483 58.4317 71.7314Z" fill="url(#paint17_linear_171_1718)"/>
<path d="M62.1196 73.7344C62.0481 73.7469 61.9747 73.7414 61.906 73.7185C61.8373 73.6955 61.7755 73.6559 61.7261 73.6031C61.6876 73.5419 61.6621 73.4736 61.6512 73.4022C61.6402 73.3309 61.6441 73.2581 61.6625 73.1883C61.6625 73.1883 61.731 72.882 61.8714 72.2872C61.9188 72.0733 61.8828 71.9631 61.7686 71.9631C61.6433 71.9881 61.531 72.0564 61.4519 72.156C61.3351 72.2656 61.2442 72.3995 61.1858 72.5481C61.1498 72.6583 61.109 72.8625 61.0503 73.1299C60.9915 73.3973 60.9572 73.5788 60.9344 73.6469C60.9115 73.715 60.8119 73.7344 60.6438 73.7376C60.4756 73.7409 60.3858 73.7085 60.3744 73.6388C60.4375 73.3374 60.5387 72.8858 60.678 72.284C60.7001 72.2204 60.7046 72.1521 60.6911 72.0863C60.6891 72.0724 60.6844 72.059 60.6771 72.047C60.6698 72.0349 60.6602 72.0244 60.6488 72.0161C60.6374 72.0078 60.6244 72.0019 60.6107 71.9986C60.5969 71.9953 60.5826 71.9948 60.5687 71.9971C60.4587 72.0166 60.3593 72.074 60.2879 72.1592C60.1674 72.2724 60.0694 72.4071 59.9989 72.5562C59.8879 72.9235 59.8012 73.2976 59.7394 73.6761C59.7263 73.7133 59.6724 73.7393 59.5761 73.7555C59.4845 73.7739 59.3902 73.7739 59.2986 73.7555C59.2104 73.735 59.1685 73.6982 59.1729 73.6453C59.2262 73.4108 59.3051 73.0824 59.4096 72.66C59.5141 72.2375 59.5941 71.9134 59.6496 71.6876C59.6887 71.6304 59.784 71.6087 59.9353 71.6228C60.0865 71.6368 60.1698 71.6784 60.185 71.7476L60.0822 72.1446C60.1853 71.9981 60.3102 71.8681 60.4528 71.7589C60.5735 71.6597 60.7238 71.6028 60.8805 71.5969C60.9386 71.5917 60.9971 71.601 61.0507 71.6239C61.1043 71.6468 61.1513 71.6826 61.1874 71.7281C61.222 71.7807 61.2455 71.8397 61.2564 71.9015C61.2674 71.9634 61.2656 72.0268 61.2511 72.0879C61.5106 71.7476 61.7816 71.5774 62.0543 71.5758C62.4232 71.5758 62.5603 71.7865 62.464 72.224C62.4542 72.2672 62.4379 72.3267 62.415 72.4023C62.3922 72.4779 62.371 72.5498 62.3514 72.6178L62.2877 72.8382C62.267 72.908 62.2501 72.9789 62.2371 73.0505C62.2264 73.1084 62.2193 73.1668 62.2159 73.2255C62.2113 73.2681 62.218 73.3112 62.2355 73.3503C62.2429 73.3647 62.2545 73.3766 62.2687 73.3844C62.283 73.3921 62.2992 73.3955 62.3155 73.3941C62.4101 73.3941 62.5255 73.3131 62.6615 73.151C62.8021 72.9815 62.916 72.7919 62.9995 72.5887C63.0078 72.5797 63.0186 72.5734 63.0305 72.5705C63.0424 72.5676 63.0549 72.5683 63.0664 72.5724C63.0995 72.5799 63.13 72.5962 63.1546 72.6194C63.1818 72.6443 63.1905 72.6664 63.1807 72.6859C62.8607 73.3617 62.5081 73.715 62.1196 73.7344Z" fill="url(#paint18_linear_171_1718)"/>
<path d="M64.2614 71.5563C64.3849 71.5567 64.5064 71.5867 64.6157 71.6438C64.7051 71.6884 64.7786 71.7591 64.8263 71.8464C64.868 71.9293 64.8882 72.0212 64.885 72.1138C64.883 72.2124 64.8572 72.3091 64.8099 72.3958C64.7598 72.4917 64.6905 72.5765 64.6063 72.6451C64.5221 72.7136 64.4248 72.7644 64.3202 72.7945C64.0662 72.8722 63.7955 72.8783 63.5382 72.8123C63.5284 72.881 63.5336 72.9509 63.5533 73.0174C63.573 73.0839 63.6068 73.1455 63.6525 73.198C63.7614 73.3007 63.9055 73.3586 64.0557 73.3601C64.2819 73.3738 64.5067 73.3171 64.6989 73.198C64.9419 73.0477 65.1306 72.8247 65.2377 72.5611C65.2461 72.5524 65.257 72.5464 65.2689 72.5438C65.2808 72.5412 65.2932 72.5422 65.3046 72.5465C65.3371 72.5542 65.367 72.5705 65.3911 72.5935C65.4183 72.6184 65.4287 72.6411 65.4221 72.6616C65.0891 73.3811 64.5863 73.7317 63.9137 73.7133C63.5496 73.7036 63.2852 73.5886 63.1252 73.3714C63.0461 73.2603 62.9924 73.1335 62.9679 72.9997C62.9433 72.8659 62.9486 72.7283 62.9832 72.5968C63.0378 72.2935 63.1985 72.0192 63.437 71.8221C63.669 71.6349 63.9629 71.5402 64.2614 71.5563ZM64.1961 71.9112C64.1257 71.914 64.0568 71.9318 63.994 71.9634C63.9311 71.995 63.8759 72.0397 63.8321 72.0944C63.7091 72.2242 63.6219 72.3832 63.579 72.5562C63.7353 72.5845 63.8965 72.5688 64.0443 72.5109C64.1614 72.4603 64.2571 72.3709 64.3153 72.2581C64.3584 72.1877 64.3746 72.1043 64.361 72.0231C64.3518 71.9877 64.3301 71.9567 64.2998 71.9359C64.2695 71.9151 64.2327 71.9057 64.1961 71.9096V71.9112Z" fill="url(#paint19_linear_171_1718)"/>
<path d="M66.4261 73.7328C66.3433 73.7345 66.261 73.7191 66.1845 73.6874C66.118 73.6583 66.0642 73.6066 66.0327 73.5416C65.9967 73.4705 65.9714 73.3946 65.9576 73.3163C65.9418 73.209 65.9385 73.1002 65.9478 72.9922C65.9554 72.8604 65.9674 72.7318 65.9837 72.6065C66 72.4812 66.0245 72.325 66.0572 72.1381H66.0474C65.8669 72.3512 65.7149 72.5865 65.5952 72.8382C65.4694 73.0861 65.3651 73.3442 65.2834 73.6096C65.2654 73.6728 65.1838 73.7085 65.0385 73.7133C64.8932 73.7182 64.8067 73.6858 64.7904 73.6226C64.7868 73.6093 64.7868 73.5954 64.7904 73.5821C65.0158 72.8682 65.3971 72.2125 65.907 71.6617C65.9401 71.6298 65.9813 71.6074 66.0262 71.5969C66.084 71.5803 66.1439 71.5716 66.2041 71.5709C66.2652 71.5698 66.3263 71.5731 66.3869 71.5807C66.436 71.585 66.4836 71.5987 66.5273 71.6212C66.5423 71.6273 66.555 71.6379 66.5635 71.6516C66.572 71.6653 66.5759 71.6813 66.5747 71.6973C66.4844 72.1593 66.4298 72.6274 66.4114 73.0975C66.4229 73.2871 66.4833 73.3811 66.5926 73.3779C66.7325 73.3582 66.8606 73.2892 66.9534 73.1834C67.1213 73.0076 67.2562 72.8034 67.3518 72.5806C67.3602 72.5719 67.3711 72.5659 67.383 72.5633C67.3949 72.5607 67.4073 72.5616 67.4187 72.566C67.4514 72.5742 67.4813 72.591 67.5052 72.6146C67.5313 72.6405 67.5395 72.6648 67.5297 72.6875C67.1852 73.3811 66.813 73.7328 66.4261 73.7328Z" fill="url(#paint20_linear_171_1718)"/>
<path d="M69.5752 72.6357C69.5839 72.6272 69.5949 72.6215 69.6067 72.6192C69.6186 72.6169 69.631 72.6181 69.6422 72.6227C69.6745 72.6316 69.7038 72.649 69.7271 72.6729C69.7532 72.6989 69.7608 72.7215 69.7499 72.741C69.4969 73.2596 69.1622 73.4913 68.7476 73.4378C68.6392 73.5467 68.5084 73.6309 68.3641 73.6846C68.2198 73.7383 68.0654 73.7603 67.9117 73.749C67.5166 73.7377 67.3011 73.5416 67.275 73.1656C67.2538 72.8577 67.3697 72.3553 67.6211 71.6601C67.6423 71.5904 67.7436 71.5628 67.9215 71.5807C68.0668 71.5952 68.1468 71.6277 68.1566 71.6746V71.6892C68.063 71.9302 67.9775 72.1846 67.9003 72.4525C67.9789 72.3563 68.0782 72.2788 68.1909 72.2257C68.3067 72.1675 68.4375 72.1449 68.5663 72.1608C68.6337 72.1675 68.6988 72.1888 68.7569 72.2232C68.815 72.2577 68.8648 72.3044 68.9026 72.3602C68.9808 72.4761 69.017 72.6149 69.0055 72.754C68.9941 72.9145 68.9566 73.0721 68.8945 73.2207C68.9652 73.2221 69.0355 73.2094 69.1011 73.1832C69.1668 73.157 69.2264 73.118 69.2765 73.0684C69.4073 72.948 69.5094 72.8002 69.5752 72.6357ZM68.5108 72.929C68.5843 72.6713 68.5337 72.5255 68.3623 72.4963C68.3002 72.4882 68.2371 72.493 68.177 72.5103C68.1169 72.5276 68.061 72.557 68.0129 72.5968C67.8889 72.6882 67.8016 72.8202 67.7664 72.9695C67.7414 73.071 67.75 73.1779 67.7909 73.2742C67.8063 73.3106 67.8322 73.3417 67.8653 73.3636C67.8984 73.3855 67.9372 73.3972 67.977 73.3973C68.0447 73.4014 68.1124 73.3898 68.1747 73.3633C68.2371 73.3369 68.2924 73.2964 68.3362 73.245C68.3166 73.213 68.3062 73.1763 68.3062 73.1389C68.3062 73.1014 68.3166 73.0647 68.3362 73.0327C68.3546 73.0016 68.3808 72.9757 68.4123 72.9575C68.4437 72.9394 68.4794 72.9295 68.5157 72.929H68.5108Z" fill="url(#paint21_linear_171_1718)"/>
<path d="M70.86 71.6584C71.0305 71.6532 71.1969 71.711 71.3269 71.8205C71.3719 71.8608 71.4064 71.9114 71.4275 71.9678C71.4485 72.0243 71.4555 72.0849 71.4477 72.1446C71.4268 72.2691 71.3648 72.3831 71.2714 72.4687C71.2312 72.5004 71.1845 72.5228 71.1345 72.5342C71.0845 72.5457 71.0326 72.546 70.9825 72.5352C70.847 72.5222 70.78 72.4866 70.7817 72.4298C70.815 72.3927 70.844 72.3519 70.8682 72.3083C70.8926 72.2657 70.9108 72.2199 70.9221 72.1722C70.9329 72.1329 70.93 72.0913 70.9139 72.0539C70.9036 72.0362 70.8889 72.0215 70.8711 72.0113C70.8534 72.0011 70.8332 71.9956 70.8127 71.9955C70.7266 71.9921 70.6411 72.0112 70.5649 72.0511C70.4886 72.0909 70.4243 72.15 70.3784 72.2224C70.2329 72.4006 70.1422 72.6167 70.1172 72.8447C70.1047 72.918 70.1075 72.9932 70.1254 73.0654C70.1434 73.1376 70.1762 73.2054 70.2217 73.2644C70.2697 73.32 70.329 73.3647 70.3957 73.3957C70.4624 73.4267 70.535 73.4433 70.6086 73.4443C70.8281 73.4585 71.0464 73.4016 71.2306 73.2823C71.4481 73.1362 71.6204 72.9331 71.7285 72.6956C71.7368 72.6876 71.7474 72.6824 71.7588 72.6806C71.7702 72.6789 71.7819 72.6807 71.7922 72.6859C71.8232 72.6972 71.8512 72.7155 71.8738 72.7394C71.8999 72.7653 71.9092 72.7864 71.9016 72.8026C71.5343 73.5156 71.0135 73.8397 70.3409 73.7879C70.2226 73.7827 70.1067 73.7528 70.001 73.7C69.8952 73.6472 69.8018 73.5728 69.7271 73.4816C69.6527 73.3918 69.597 73.2883 69.5631 73.1771C69.5292 73.0658 69.5178 72.949 69.5295 72.8334C69.5568 72.5086 69.7073 72.2062 69.9507 71.9874C70.0706 71.8723 70.2135 71.7836 70.3701 71.7269C70.5268 71.6702 70.6937 71.6469 70.86 71.6584Z" fill="url(#paint22_linear_171_1718)"/>
<path d="M74.3438 73.984C74.2713 73.9911 74.1982 73.98 74.1311 73.9516C74.0641 73.9233 74.0053 73.8787 73.9602 73.8219C73.9264 73.7581 73.906 73.6881 73.9004 73.6162C73.8948 73.5443 73.904 73.472 73.9275 73.4038C73.9275 73.4038 74.0189 73.1024 74.2018 72.519C74.2654 72.3099 74.2361 72.1949 74.1218 72.1949C73.9973 72.2095 73.8818 72.2668 73.7953 72.3569C73.6708 72.4581 73.5704 72.5854 73.5014 72.7296C73.4574 72.8382 73.4018 73.0376 73.3235 73.3001C73.2451 73.5626 73.1994 73.7409 73.17 73.8073C73.1406 73.8738 73.0411 73.8868 72.8745 73.8786C72.708 73.8705 72.6199 73.8316 72.6133 73.762C72.6982 73.4659 72.8316 73.023 73.0133 72.4331C73.04 72.3714 73.0496 72.3036 73.0411 72.237C73.04 72.223 73.0362 72.2093 73.0298 72.1968C73.0234 72.1843 73.0145 72.1732 73.0037 72.1642C72.9929 72.1551 72.9804 72.1483 72.9669 72.1441C72.9534 72.1399 72.9392 72.1384 72.9252 72.1398C72.8134 72.1524 72.7098 72.2041 72.6329 72.2856C72.5046 72.3901 72.3972 72.5177 72.3162 72.6616C72.1796 73.0201 72.0667 73.3872 71.9783 73.7603C71.9636 73.796 71.9065 73.8187 71.815 73.8284C71.7223 73.8381 71.6285 73.8293 71.5392 73.8025C71.4521 73.7755 71.4129 73.7355 71.4216 73.6826C71.4913 73.4524 71.5936 73.1283 71.7285 72.7102C71.8635 72.2921 71.9669 71.9718 72.0387 71.7492C72.0822 71.6941 72.1791 71.679 72.3293 71.7038C72.4795 71.7287 72.5595 71.7762 72.5693 71.8464L72.4387 72.2354C72.5518 72.0967 72.6856 71.9759 72.8354 71.8772C72.9625 71.7848 73.117 71.737 73.2745 71.7411C73.3326 71.7402 73.39 71.7537 73.4416 71.7803C73.4932 71.8069 73.5373 71.8457 73.57 71.8934C73.6009 71.9485 73.6202 72.0092 73.6266 72.0719C73.6331 72.1346 73.6266 72.1979 73.6075 72.2581C73.8916 71.9339 74.1724 71.7865 74.445 71.8027C74.8123 71.8254 74.9348 72.049 74.8074 72.4768C74.7944 72.519 74.7737 72.5768 74.7454 72.6502C74.7171 72.7237 74.691 72.7939 74.667 72.8609L74.5887 73.0765C74.5631 73.1449 74.5413 73.2147 74.5234 73.2855C74.5089 73.3426 74.498 73.4005 74.4907 73.4589C74.4836 73.5008 74.4876 73.5438 74.5022 73.5837C74.5086 73.5985 74.5194 73.6109 74.5331 73.6196C74.5467 73.6283 74.5627 73.6327 74.5789 73.6323C74.6736 73.6377 74.7944 73.5648 74.9413 73.4135C75.0935 73.2546 75.2206 73.0737 75.3184 72.8771C75.3273 72.869 75.3383 72.8636 75.3502 72.8615C75.3621 72.8595 75.3743 72.861 75.3853 72.8658C75.4172 72.8754 75.446 72.8933 75.4686 72.9176C75.4947 72.9446 75.5018 72.9679 75.4898 72.9873C75.1095 73.6647 74.7323 73.9921 74.3438 73.984Z" fill="url(#paint23_linear_171_1718)"/>
<path d="M75.942 74.065C75.3788 74.0067 75.1764 73.6112 75.3233 72.8868C75.4866 72.1057 75.7216 71.498 76.04 71.0929C76.1372 70.9502 76.2687 70.8338 76.4226 70.7543C76.5766 70.6747 76.748 70.6346 76.9215 70.6375C77.0588 70.6399 77.1936 70.6743 77.315 70.7379C77.4105 70.7864 77.4882 70.8635 77.537 70.9584C77.58 71.0523 77.599 71.1552 77.5925 71.2582C77.587 71.3707 77.5587 71.4809 77.5092 71.5823C77.4522 71.6967 77.3754 71.8004 77.2823 71.8886C77.1834 71.9857 77.0678 72.0648 76.9411 72.1219C77.0283 72.1313 77.1107 72.1663 77.1778 72.2222C77.245 72.2782 77.2938 72.3527 77.3182 72.4363C77.378 72.6301 77.378 72.8373 77.3182 73.0311C77.263 73.2414 77.164 73.4379 77.0276 73.608C77.3542 73.6685 77.6306 73.487 77.857 73.0635C77.8672 73.058 77.8787 73.0551 77.8904 73.0551C77.9021 73.0551 77.9136 73.058 77.9239 73.0635C77.956 73.0735 77.9848 73.092 78.0072 73.117C78.0316 73.1445 78.0398 73.1672 78.0267 73.1867C77.9244 73.3725 77.7876 73.5374 77.6235 73.6728C77.5106 73.7672 77.3707 73.8238 77.2236 73.8349C77.0862 73.8382 76.9489 73.8235 76.8154 73.7911C76.6954 73.8919 76.5563 73.9681 76.4064 74.0151C76.2565 74.0621 76.0986 74.0791 75.942 74.065ZM76.0465 73.7263C76.1152 73.732 76.1843 73.7223 76.2488 73.6979C76.3132 73.6735 76.3713 73.635 76.4187 73.5853C76.4003 73.5546 76.3915 73.5191 76.3935 73.4834C76.3955 73.4477 76.4082 73.4134 76.4299 73.3849C76.4516 73.3563 76.4814 73.3349 76.5155 73.3233C76.5496 73.3116 76.5863 73.3103 76.6212 73.3195C76.7433 73.1405 76.8097 72.9297 76.8122 72.7134C76.8122 72.5303 76.724 72.4331 76.5754 72.4169C76.3396 72.409 76.1085 72.4836 75.9224 72.6276C75.7037 73.3293 75.7527 73.689 76.04 73.7263H76.0465ZM76.0465 72.1868L76.2098 72.1203L76.4089 72.0393C76.4465 72.0231 76.4954 71.9988 76.5575 71.9664C76.6104 71.9397 76.6616 71.9099 76.7109 71.8772C76.8821 71.7674 77.0119 71.6045 77.0799 71.4137C77.1436 71.2322 77.1142 71.1155 76.9852 71.0669L76.8987 71.0507C76.5754 71.0183 76.2914 71.3975 76.04 72.1868H76.0465Z" fill="url(#paint24_linear_171_1718)"/>
<path d="M79.1875 72.1446C79.3749 72.147 79.5554 72.2154 79.6968 72.3375C79.8145 72.4447 79.8863 72.5926 79.8976 72.7507C79.9087 72.9277 79.8843 73.105 79.8258 73.2725C79.7628 73.463 79.6691 73.6419 79.5483 73.8025C79.8671 73.863 80.1392 73.6869 80.3645 73.2742C80.3735 73.2663 80.3846 73.2612 80.3965 73.2595C80.4084 73.2577 80.4205 73.2595 80.4314 73.2644C80.4631 73.2753 80.4913 73.2943 80.5131 73.3196C80.5381 73.3466 80.5446 73.3698 80.5327 73.3892C80.2062 73.9338 79.8144 74.1347 79.336 73.9953C79.2155 74.096 79.0762 74.172 78.926 74.219C78.7759 74.266 78.6178 74.283 78.461 74.2692C78.3436 74.2673 78.2281 74.2396 78.1228 74.188C78.0175 74.1365 77.925 74.0624 77.8521 73.971C77.7198 73.7944 77.7002 73.5302 77.7998 73.1867C77.8835 72.8729 78.0716 72.5964 78.3337 72.4023C78.5772 72.216 78.8808 72.1244 79.1875 72.1446ZM79.0911 72.4914C79.0094 72.4942 78.9294 72.5155 78.8572 72.5537C78.7851 72.5919 78.7227 72.646 78.6749 72.7118C78.5419 72.8627 78.4443 73.0409 78.3892 73.2337C78.2651 73.6658 78.3266 73.8943 78.5736 73.9192C78.6407 73.9228 78.7077 73.9117 78.7698 73.8864C78.8319 73.8612 78.8876 73.8226 78.9328 73.7733C78.9126 73.7402 78.9033 73.7016 78.9063 73.663C78.9092 73.6243 78.9242 73.5876 78.9491 73.5578C78.9686 73.5277 78.9976 73.5048 79.0316 73.4928C79.0656 73.4808 79.1026 73.4803 79.1369 73.4913C79.1956 73.3812 79.2448 73.2662 79.2838 73.1478C79.3191 73.0429 79.3411 72.934 79.3491 72.8237C79.3591 72.74 79.3401 72.6554 79.2952 72.5838C79.271 72.5536 79.2398 72.5296 79.2043 72.5138C79.1688 72.498 79.13 72.4909 79.0911 72.493V72.4914Z" fill="url(#paint25_linear_171_1718)"/>
<path d="M82.3186 72.6486C82.4995 72.5591 82.6978 72.5093 82.8998 72.5028C83.0945 72.5 83.2881 72.5324 83.4712 72.5984C83.654 72.6607 83.8188 72.7664 83.9511 72.9063C83.9707 72.9484 83.9392 73.0062 83.8564 73.0797C83.7748 73.1526 83.7144 73.1737 83.6769 73.1429C83.4984 72.9658 83.2566 72.8662 83.0043 72.8658C82.8417 72.8652 82.6831 72.9151 82.5504 73.0084C82.3951 73.1146 82.2634 73.2514 82.1635 73.4103C82.0697 73.5486 82.0042 73.7039 81.9709 73.8673C81.9541 73.9196 81.9492 73.9749 81.9566 74.0292C81.9639 74.0836 81.9833 74.1357 82.0133 74.1817C82.0852 74.2595 82.1978 74.2498 82.3398 74.1558C82.5161 74.0284 82.664 73.8661 82.7741 73.6793C82.8892 73.5004 82.9902 73.313 83.0761 73.1186C83.1186 73.0732 83.2078 73.0732 83.3438 73.1186C83.4799 73.164 83.5484 73.2142 83.5495 73.2693C83.4842 73.4227 83.3966 73.6388 83.2867 73.9175C83.1768 74.1963 83.087 74.4242 83.0173 74.6014C83.407 74.4934 83.7623 74.1725 84.0834 73.6388C84.0936 73.6333 84.1051 73.6304 84.1168 73.6304C84.1285 73.6304 84.14 73.6333 84.1503 73.6388C84.1822 73.6501 84.2104 73.6697 84.2319 73.6955C84.2564 73.7231 84.2629 73.7474 84.2499 73.7652C84.0784 74.0474 83.868 74.3043 83.6246 74.5285C83.4238 74.7003 83.019 74.8056 82.8965 74.9158C82.7072 75.0892 82.57 75.6273 82.4068 75.7877C82.3222 75.8675 82.2206 75.9275 82.1096 75.9631C81.9985 75.9987 81.8808 76.0091 81.7652 75.9935C81.6166 75.9937 81.4739 75.9355 81.3685 75.8315C81.324 75.7788 81.2933 75.716 81.279 75.6488C81.2648 75.5815 81.2675 75.5118 81.2869 75.4458C81.3057 75.3555 81.346 75.2711 81.4044 75.1994C81.4597 75.1311 81.5245 75.0711 81.5971 75.0212C81.6804 74.9675 81.7697 74.9235 81.8632 74.8899C81.9581 74.8529 82.0551 74.8215 82.1537 74.7959C82.2397 74.7743 82.3453 74.75 82.4704 74.723C82.5586 74.5317 82.6571 74.3081 82.7659 74.052C82.4998 74.4248 82.2125 74.6014 81.9023 74.5755C81.8065 74.5758 81.7126 74.5494 81.6312 74.4993C81.5498 74.4491 81.4842 74.3773 81.442 74.2919C81.3605 74.1008 81.3535 73.8865 81.4224 73.6907C81.494 73.4498 81.6196 73.2282 81.7897 73.0424C81.9374 72.8771 82.1173 72.7431 82.3186 72.6486ZM82.3627 75.0293C82.1388 75.0753 81.9386 75.1988 81.7979 75.3777C81.7293 75.4911 81.7326 75.5705 81.7979 75.6192C81.8632 75.6678 81.9611 75.6516 82.0623 75.5657C82.138 75.4959 82.1985 75.4115 82.2403 75.3177C82.2582 75.2821 82.2794 75.2286 82.3088 75.1557L82.3627 75.0293Z" fill="url(#paint26_linear_171_1718)"/>
<path d="M85.4579 72.7799C85.6456 72.7893 85.8238 72.8645 85.9608 72.9922C86.0745 73.1034 86.1411 73.2536 86.1469 73.4119C86.1512 73.5891 86.1202 73.7653 86.0554 73.9305C85.9854 74.1182 85.885 74.2933 85.7583 74.4491C86.075 74.5215 86.3536 74.3551 86.5942 73.9499C86.6043 73.9433 86.6163 73.9397 86.6285 73.9397C86.6407 73.9397 86.6526 73.9433 86.6627 73.9499C86.6942 73.9619 86.7218 73.9821 86.7427 74.0083C86.7667 74.0364 86.7721 74.0596 86.7591 74.078C86.4179 74.6111 86.0146 74.7975 85.5412 74.6403C85.417 74.7365 85.2749 74.8073 85.1231 74.8487C84.9712 74.8902 84.8126 74.9014 84.6564 74.8818C84.5388 74.875 84.4242 74.8425 84.3209 74.7864C84.2176 74.7304 84.1281 74.6522 84.0589 74.5577C83.9332 74.3762 83.9234 74.112 84.0344 73.7717C84.1292 73.4611 84.3272 73.1915 84.596 73.0068C84.8459 72.8295 85.1524 72.7489 85.4579 72.7799ZM85.3486 73.1234C85.2667 73.1232 85.1858 73.1417 85.1122 73.1774C85.0387 73.2131 84.9743 73.265 84.9241 73.3293C84.7854 73.4754 84.6811 73.6503 84.6188 73.8414C84.4784 74.2735 84.5329 74.5042 84.7821 74.5334C84.8489 74.5394 84.9162 74.5306 84.9792 74.5076C85.0422 74.4846 85.0992 74.448 85.1461 74.4005C85.1268 74.3667 85.1187 74.3277 85.1228 74.2891C85.1269 74.2504 85.143 74.214 85.169 74.1849C85.1895 74.1556 85.2192 74.1339 85.2534 74.123C85.2877 74.1122 85.3245 74.1129 85.3584 74.125C85.4224 74.0174 85.477 73.9047 85.5216 73.7879C85.56 73.6866 85.5858 73.581 85.5983 73.4735C85.6112 73.3902 85.595 73.305 85.5526 73.232C85.5306 73.1982 85.5003 73.1704 85.4647 73.1512C85.4291 73.1319 85.3891 73.1218 85.3486 73.1218V73.1234Z" fill="url(#paint27_linear_171_1718)"/>
<path d="M89.6078 74.3519C89.6181 74.3463 89.6296 74.3434 89.6412 74.3434C89.6529 74.3434 89.6644 74.3463 89.6747 74.3519C89.7058 74.3645 89.7328 74.3852 89.7531 74.4118C89.7759 74.441 89.7814 74.4642 89.7694 74.4815C89.5962 74.7577 89.3752 75.0014 89.1164 75.201C88.9494 75.328 88.7394 75.3861 88.5303 75.3631C88.3225 75.3339 88.2136 75.1919 88.2038 74.9369C88.2154 74.5962 88.2884 74.2603 88.4193 73.9451C88.0569 74.5366 87.7663 74.9077 87.5508 75.0552C87.5154 75.0799 87.4753 75.0973 87.433 75.1065C87.3907 75.1157 87.3469 75.1164 87.3043 75.1087C87.2629 75.1031 87.2239 75.0862 87.1916 75.0599C87.1593 75.0335 87.135 74.9988 87.1215 74.9596C87.0783 74.8235 87.0622 74.6804 87.0741 74.5382C87.0931 74.2829 87.1368 74.03 87.2047 73.783C86.9347 74.1589 86.7106 74.5653 86.537 74.9936C86.512 75.0509 86.4287 75.0741 86.2873 75.0633C86.1387 75.0519 86.0571 75.0131 86.0456 74.9482C86.0423 74.9403 86.0405 74.9317 86.0405 74.9231C86.0405 74.9145 86.0423 74.9059 86.0456 74.898C86.1904 74.5938 86.354 74.2989 86.5354 74.0148C86.691 73.7771 86.9087 73.4784 87.1884 73.1186C87.2374 73.0586 87.3517 73.0424 87.5149 73.0667C87.6782 73.091 87.7369 73.1445 87.7418 73.1931C87.7441 73.1994 87.7441 73.2063 87.7418 73.2126C87.6336 73.4735 87.5537 73.7451 87.5035 74.0229C87.4458 74.2234 87.4281 74.4331 87.4512 74.6403C87.611 74.4932 87.7499 74.3253 87.8643 74.1412C88.0602 73.8624 88.2479 73.5778 88.4275 73.2871C88.4683 73.2191 88.5793 73.1996 88.754 73.232C88.9287 73.2644 89.007 73.3082 89.0152 73.3698V73.3941C88.9564 73.5669 88.9069 73.7155 88.8666 73.8397C88.8264 73.964 88.7866 74.0936 88.7475 74.2287C88.7138 74.3401 88.686 74.4531 88.6642 74.5674C88.649 74.65 88.6381 74.7333 88.6315 74.817C88.6245 74.872 88.6324 74.928 88.6544 74.979C88.6641 74.9964 88.6783 75.011 88.6955 75.0212C88.7127 75.0314 88.7323 75.037 88.7523 75.0374C89.0021 75.0665 89.2878 74.8364 89.6078 74.3519Z" fill="url(#paint28_linear_171_1718)"/>
<path d="M91.0036 73.5302C91.1885 73.5468 91.3618 73.627 91.4933 73.7571C91.6032 73.8722 91.6646 74.0247 91.6647 74.1833C91.6635 74.3605 91.6269 74.5357 91.557 74.6987C91.481 74.884 91.3751 75.0559 91.2436 75.2075C91.5581 75.2896 91.8422 75.1324 92.0957 74.7359C92.1059 74.7292 92.1178 74.7257 92.13 74.7257C92.1422 74.7257 92.1541 74.7292 92.1643 74.7359C92.1953 74.7486 92.2224 74.7693 92.2427 74.7959C92.2655 74.8251 92.2704 74.8488 92.2574 74.8672C91.8998 75.389 91.4884 75.5624 91.0215 75.3907C90.8942 75.4829 90.7498 75.5494 90.5966 75.5861C90.4433 75.6228 90.2843 75.6291 90.1286 75.6046C90.0115 75.5947 89.898 75.5593 89.7964 75.5007C89.6948 75.4421 89.6075 75.3619 89.5408 75.2659C89.42 75.0811 89.42 74.817 89.5408 74.4799C89.6463 74.1727 89.8535 73.9099 90.1286 73.7344C90.3852 73.5622 90.6966 73.4895 91.0036 73.5302ZM90.8828 73.8705C90.8006 73.8677 90.7189 73.8836 90.6439 73.917C90.5689 73.9504 90.5026 74.0005 90.4502 74.0634C90.305 74.2046 90.1934 74.3763 90.1237 74.5658C89.9702 74.9979 90.0159 75.2302 90.2608 75.2626C90.3275 75.2709 90.3953 75.2642 90.4591 75.2432C90.5229 75.2222 90.5812 75.1873 90.6297 75.1411C90.6119 75.1067 90.6053 75.0675 90.6108 75.0292C90.6164 74.9909 90.6338 74.9552 90.6607 74.9272C90.6822 74.8987 90.7126 74.878 90.7471 74.8683C90.7817 74.8586 90.8184 74.8605 90.8518 74.8737C90.9151 74.7703 90.9697 74.6619 91.015 74.5496C91.0567 74.4492 91.0857 74.3442 91.1015 74.2368C91.1173 74.1539 91.1041 74.0681 91.064 73.9937C91.0456 73.9605 91.0197 73.9321 90.9882 73.9107C90.9567 73.8893 90.9206 73.8755 90.8828 73.8705Z" fill="url(#paint29_linear_171_1718)"/>
<path d="M92.6198 75.966C92.0631 75.8525 91.9015 75.4393 92.1186 74.7327C92.352 73.971 92.6508 73.3892 93.0099 73.0165C93.121 72.8837 93.2636 72.7805 93.425 72.7163C93.5863 72.6521 93.7613 72.6288 93.9339 72.6486C94.0704 72.6643 94.2012 72.7115 94.3159 72.7864C94.4069 72.8438 94.4771 72.9284 94.5168 73.0278C94.5504 73.1252 94.5593 73.2293 94.5429 73.3309C94.5273 73.4458 94.4878 73.5561 94.427 73.655C94.3587 73.7631 94.272 73.8585 94.1707 73.937C94.0621 74.0243 93.9389 74.0918 93.8066 74.1363C93.8924 74.1544 93.971 74.1972 94.0323 74.2595C94.0936 74.3218 94.1349 74.4008 94.1511 74.4864C94.1928 74.6851 94.1734 74.8918 94.0956 75.0795C94.0199 75.2836 93.902 75.4696 93.7495 75.6256C94.0684 75.7175 94.3617 75.5641 94.6294 75.1654C94.6397 75.1599 94.6512 75.157 94.6629 75.157C94.6745 75.157 94.6861 75.1599 94.6963 75.1654C94.727 75.1787 94.7535 75.2 94.773 75.227C94.7959 75.2561 94.8008 75.2805 94.7861 75.2983C94.6658 75.4743 94.5129 75.6261 94.3355 75.7456C94.2137 75.8302 94.068 75.8745 93.9192 75.872C93.7822 75.8614 93.6472 75.8331 93.5176 75.7877C93.3872 75.8747 93.2407 75.9353 93.0866 75.9659C92.9325 75.9964 92.7739 75.9965 92.6198 75.966ZM92.7569 75.6418C92.8248 75.6542 92.8947 75.6514 92.9614 75.6334C93.0281 75.6155 93.0899 75.5829 93.1422 75.5381C93.1268 75.5057 93.1215 75.4694 93.127 75.4339C93.1326 75.3985 93.1487 75.3655 93.1732 75.3392C93.1978 75.3129 93.2297 75.2945 93.2649 75.2863C93.3001 75.2781 93.337 75.2806 93.3707 75.2934C93.5101 75.127 93.597 74.9235 93.6205 74.7084C93.6303 74.5253 93.5601 74.4199 93.4148 74.3843C93.1793 74.3525 92.9399 74.4041 92.7389 74.5301C92.4598 75.2108 92.4728 75.5754 92.7569 75.6402V75.6418ZM92.9071 74.1104L93.0703 74.0602L93.276 73.9986C93.3152 73.9872 93.3658 73.9678 93.4393 73.9402C93.4952 73.9187 93.5497 73.8938 93.6025 73.8657C93.7839 73.7729 93.9292 73.623 94.0156 73.4395C94.0972 73.2644 94.0776 73.1461 93.9552 73.0862L93.8703 73.0619C93.5585 72.997 93.2352 73.3471 92.9087 74.1088L92.9071 74.1104Z" fill="url(#paint30_linear_171_1718)"/>
</g>
<defs>
<linearGradient id="paint0_linear_171_1718" x1="3.77687" y1="31.6478" x2="113.966" y2="33.8679" gradientUnits="userSpaceOnUse">
<stop stop-color="#46ACD4"/>
<stop offset="1" stop-color="#41A981"/>
</linearGradient>
<linearGradient id="paint1_linear_171_1718" x1="3.30018" y1="55.3845" x2="113.488" y2="57.6046" gradientUnits="userSpaceOnUse">
<stop stop-color="#46ACD4"/>
<stop offset="1" stop-color="#41A981"/>
</linearGradient>
<linearGradient id="paint2_linear_171_1718" x1="3.67565" y1="36.7494" x2="113.863" y2="38.9695" gradientUnits="userSpaceOnUse">
<stop stop-color="#46ACD4"/>
<stop offset="1" stop-color="#41A981"/>
</linearGradient>
<linearGradient id="paint3_linear_171_1718" x1="6.22991" y1="66.6947" x2="127.723" y2="64.9458" gradientUnits="userSpaceOnUse">
<stop stop-color="#46ACD4"/>
<stop offset="1" stop-color="#41A981"/>
</linearGradient>
<linearGradient id="paint4_linear_171_1718" x1="6.239" y1="67.3978" x2="127.734" y2="65.6471" gradientUnits="userSpaceOnUse">
<stop stop-color="#46ACD4"/>
<stop offset="1" stop-color="#41A981"/>
</linearGradient>
<linearGradient id="paint5_linear_171_1718" x1="6.22889" y1="66.7084" x2="127.724" y2="64.9578" gradientUnits="userSpaceOnUse">
<stop stop-color="#46ACD4"/>
<stop offset="1" stop-color="#41A981"/>
</linearGradient>
<linearGradient id="paint6_linear_171_1718" x1="6.20101" y1="64.6983" x2="127.694" y2="62.9478" gradientUnits="userSpaceOnUse">
<stop stop-color="#46ACD4"/>
<stop offset="1" stop-color="#41A981"/>
</linearGradient>
<linearGradient id="paint7_linear_171_1718" x1="6.20819" y1="65.2062" x2="127.701" y2="63.4556" gradientUnits="userSpaceOnUse">
<stop stop-color="#46ACD4"/>
<stop offset="1" stop-color="#41A981"/>
</linearGradient>
<linearGradient id="paint8_linear_171_1718" x1="6.22109" y1="66.1487" x2="127.716" y2="64.3981" gradientUnits="userSpaceOnUse">
<stop stop-color="#46ACD4"/>
<stop offset="1" stop-color="#41A981"/>
</linearGradient>
<linearGradient id="paint9_linear_171_1718" x1="6.22613" y1="66.5315" x2="127.721" y2="64.7809" gradientUnits="userSpaceOnUse">
<stop stop-color="#46ACD4"/>
<stop offset="1" stop-color="#41A981"/>
</linearGradient>
<linearGradient id="paint10_linear_171_1718" x1="6.26146" y1="68.7138" x2="127.756" y2="66.9632" gradientUnits="userSpaceOnUse">
<stop stop-color="#46ACD4"/>
<stop offset="1" stop-color="#41A981"/>
</linearGradient>
<linearGradient id="paint11_linear_171_1718" x1="6.24738" y1="67.933" x2="127.741" y2="66.1825" gradientUnits="userSpaceOnUse">
<stop stop-color="#46ACD4"/>
<stop offset="1" stop-color="#41A981"/>
</linearGradient>
<linearGradient id="paint12_linear_171_1718" x1="6.2656" y1="69.1882" x2="127.759" y2="67.4394" gradientUnits="userSpaceOnUse">
<stop stop-color="#46ACD4"/>
<stop offset="1" stop-color="#41A981"/>
</linearGradient>
<linearGradient id="paint13_linear_171_1718" x1="45.0303" y1="73.5027" x2="96.8188" y2="73.8363" gradientUnits="userSpaceOnUse">
<stop stop-color="#46ACD4"/>
<stop offset="1" stop-color="#41A981"/>
</linearGradient>
<linearGradient id="paint14_linear_171_1718" x1="45.0329" y1="73.2538" x2="96.8212" y2="73.5874" gradientUnits="userSpaceOnUse">
<stop stop-color="#46ACD4"/>
<stop offset="1" stop-color="#41A981"/>
</linearGradient>
<linearGradient id="paint15_linear_171_1718" x1="45.0302" y1="73.7273" x2="96.8186" y2="74.0609" gradientUnits="userSpaceOnUse">
<stop stop-color="#46ACD4"/>
<stop offset="1" stop-color="#41A981"/>
</linearGradient>
<linearGradient id="paint16_linear_171_1718" x1="45.0351" y1="72.8194" x2="96.8235" y2="73.153" gradientUnits="userSpaceOnUse">
<stop stop-color="#46ACD4"/>
<stop offset="1" stop-color="#41A981"/>
</linearGradient>
<linearGradient id="paint17_linear_171_1718" x1="45.0362" y1="72.6876" x2="96.8246" y2="73.0213" gradientUnits="userSpaceOnUse">
<stop stop-color="#46ACD4"/>
<stop offset="1" stop-color="#41A981"/>
</linearGradient>
<linearGradient id="paint18_linear_171_1718" x1="45.0373" y1="72.5738" x2="96.8257" y2="72.9074" gradientUnits="userSpaceOnUse">
<stop stop-color="#46ACD4"/>
<stop offset="1" stop-color="#41A981"/>
</linearGradient>
<linearGradient id="paint19_linear_171_1718" x1="45.0374" y1="72.5217" x2="96.8241" y2="72.8552" gradientUnits="userSpaceOnUse">
<stop stop-color="#46ACD4"/>
<stop offset="1" stop-color="#41A981"/>
</linearGradient>
<linearGradient id="paint20_linear_171_1718" x1="45.0371" y1="72.5249" x2="96.8254" y2="72.8586" gradientUnits="userSpaceOnUse">
<stop stop-color="#46ACD4"/>
<stop offset="1" stop-color="#41A981"/>
</linearGradient>
<linearGradient id="paint21_linear_171_1718" x1="45.0374" y1="72.5217" x2="96.8257" y2="72.8553" gradientUnits="userSpaceOnUse">
<stop stop-color="#46ACD4"/>
<stop offset="1" stop-color="#41A981"/>
</linearGradient>
<linearGradient id="paint22_linear_171_1718" x1="45.0373" y1="72.5738" x2="96.8257" y2="72.9074" gradientUnits="userSpaceOnUse">
<stop stop-color="#46ACD4"/>
<stop offset="1" stop-color="#41A981"/>
</linearGradient>
<linearGradient id="paint23_linear_171_1718" x1="45.0363" y1="72.6697" x2="96.8247" y2="73.0034" gradientUnits="userSpaceOnUse">
<stop stop-color="#46ACD4"/>
<stop offset="1" stop-color="#41A981"/>
</linearGradient>
<linearGradient id="paint24_linear_171_1718" x1="45.0393" y1="72.1589" x2="96.8277" y2="72.4925" gradientUnits="userSpaceOnUse">
<stop stop-color="#46ACD4"/>
<stop offset="1" stop-color="#41A981"/>
</linearGradient>
<linearGradient id="paint25_linear_171_1718" x1="45.0345" y1="72.9968" x2="96.8229" y2="73.3304" gradientUnits="userSpaceOnUse">
<stop stop-color="#46ACD4"/>
<stop offset="1" stop-color="#41A981"/>
</linearGradient>
<linearGradient id="paint26_linear_171_1718" x1="45.0268" y1="74.0184" x2="96.8153" y2="74.352" gradientUnits="userSpaceOnUse">
<stop stop-color="#46ACD4"/>
<stop offset="1" stop-color="#41A981"/>
</linearGradient>
<linearGradient id="paint27_linear_171_1718" x1="45.0296" y1="73.5791" x2="96.818" y2="73.9127" gradientUnits="userSpaceOnUse">
<stop stop-color="#46ACD4"/>
<stop offset="1" stop-color="#41A981"/>
</linearGradient>
<linearGradient id="paint28_linear_171_1718" x1="45.0287" y1="73.9486" x2="96.817" y2="74.2822" gradientUnits="userSpaceOnUse">
<stop stop-color="#46ACD4"/>
<stop offset="1" stop-color="#41A981"/>
</linearGradient>
<linearGradient id="paint29_linear_171_1718" x1="45.0262" y1="74.282" x2="96.8146" y2="74.6157" gradientUnits="userSpaceOnUse">
<stop stop-color="#46ACD4"/>
<stop offset="1" stop-color="#41A981"/>
</linearGradient>
<linearGradient id="paint30_linear_171_1718" x1="45.0274" y1="74.0135" x2="96.8157" y2="74.3472" gradientUnits="userSpaceOnUse">
<stop stop-color="#46ACD4"/>
<stop offset="1" stop-color="#41A981"/>
</linearGradient>
<clipPath id="clip0_171_1718">
<rect width="94" height="66" fill="white" transform="translate(10 10)"/>
</clipPath>
</defs>
</svg>
